<?xml version="1.0" encoding="utf-8" standalone="no"?>
<!DOCTYPE svg PUBLIC "-//W3C//DTD SVG 1.1//EN"
  "http://www.w3.org/Graphics/SVG/1.1/DTD/svg11.dtd">
<!-- Created with matplotlib (http://matplotlib.org/) -->
<svg height="216pt" version="1.1" viewBox="0 0 432 216" width="432pt" xmlns="http://www.w3.org/2000/svg" xmlns:xlink="http://www.w3.org/1999/xlink">
 <defs>
  <style type="text/css">
*{stroke-linecap:butt;stroke-linejoin:round;}
  </style>
 </defs>
 <g id="figure_1">
  <g id="patch_1">
   <path d="M 0 216 
L 432 216 
L 432 0 
L 0 0 
z
" style="fill:#ffffff;"/>
  </g>
  <g id="axes_1">
   <g id="patch_2">
    <path d="M 54 189 
L 388.8 189 
L 388.8 25.92 
L 54 25.92 
z
" style="fill:#ffffff;"/>
   </g>
   <g id="PathCollection_1">
    <defs>
     <path d="M 0 3 
C 0.795609 3 1.55874 2.683901 2.12132 2.12132 
C 2.683901 1.55874 3 0.795609 3 0 
C 3 -0.795609 2.683901 -1.55874 2.12132 -2.12132 
C 1.55874 -2.683901 0.795609 -3 0 -3 
C -0.795609 -3 -1.55874 -2.683901 -2.12132 -2.12132 
C -2.683901 -1.55874 -3 -0.795609 -3 0 
C -3 0.795609 -2.683901 1.55874 -2.12132 2.12132 
C -1.55874 2.683901 -0.795609 3 0 3 
z
" id="m28d0387b02" style="stroke:#1f77b4;"/>
    </defs>
    <g clip-path="url(#pec61e2ce75)">
     <use style="fill:#1f77b4;stroke:#1f77b4;" x="69.348208" xlink:href="#m28d0387b02" y="160.507122"/>
     <use style="fill:#1f77b4;stroke:#1f77b4;" x="69.362719" xlink:href="#m28d0387b02" y="160.403919"/>
     <use style="fill:#1f77b4;stroke:#1f77b4;" x="70.253863" xlink:href="#m28d0387b02" y="161.262834"/>
     <use style="fill:#1f77b4;stroke:#1f77b4;" x="72.757098" xlink:href="#m28d0387b02" y="149.720914"/>
     <use style="fill:#1f77b4;stroke:#1f77b4;" x="76.17066" xlink:href="#m28d0387b02" y="138.155972"/>
     <use style="fill:#1f77b4;stroke:#1f77b4;" x="80.45507" xlink:href="#m28d0387b02" y="126.669576"/>
     <use style="fill:#1f77b4;stroke:#1f77b4;" x="85.587166" xlink:href="#m28d0387b02" y="115.270295"/>
     <use style="fill:#1f77b4;stroke:#1f77b4;" x="91.567577" xlink:href="#m28d0387b02" y="103.923307"/>
     <use style="fill:#1f77b4;stroke:#1f77b4;" x="98.418908" xlink:href="#m28d0387b02" y="92.578145"/>
     <use style="fill:#1f77b4;stroke:#1f77b4;" x="106.182253" xlink:href="#m28d0387b02" y="81.181191"/>
     <use style="fill:#1f77b4;stroke:#1f77b4;" x="114.914387" xlink:href="#m28d0387b02" y="69.680507"/>
     <use style="fill:#1f77b4;stroke:#1f77b4;" x="124.685983" xlink:href="#m28d0387b02" y="58.027257"/>
     <use style="fill:#1f77b4;stroke:#1f77b4;" x="135.580684" xlink:href="#m28d0387b02" y="46.175773"/>
     <use style="fill:#1f77b4;stroke:#1f77b4;" x="147.694803" xlink:href="#m28d0387b02" y="34.083129"/>
     <use style="fill:#1f77b4;stroke:#1f77b4;" x="179.752386" xlink:href="#m28d0387b02" y="169.071778"/>
     <use style="fill:#1f77b4;stroke:#1f77b4;" x="236.356709" xlink:href="#m28d0387b02" y="89.997211"/>
     <use style="fill:#1f77b4;stroke:#1f77b4;" x="237.992526" xlink:href="#m28d0387b02" y="85.525663"/>
     <use style="fill:#1f77b4;stroke:#1f77b4;" x="238.291855" xlink:href="#m28d0387b02" y="81.330695"/>
     <use style="fill:#1f77b4;stroke:#1f77b4;" x="238.695853" xlink:href="#m28d0387b02" y="80.958482"/>
     <use style="fill:#1f77b4;stroke:#1f77b4;" x="239.167348" xlink:href="#m28d0387b02" y="80.781463"/>
     <use style="fill:#1f77b4;stroke:#1f77b4;" x="239.237226" xlink:href="#m28d0387b02" y="80.863367"/>
     <use style="fill:#1f77b4;stroke:#1f77b4;" x="239.27275" xlink:href="#m28d0387b02" y="81.232192"/>
     <use style="fill:#1f77b4;stroke:#1f77b4;" x="239.197371" xlink:href="#m28d0387b02" y="81.725015"/>
     <use style="fill:#1f77b4;stroke:#1f77b4;" x="239.077787" xlink:href="#m28d0387b02" y="82.222802"/>
     <use style="fill:#1f77b4;stroke:#1f77b4;" x="238.930838" xlink:href="#m28d0387b02" y="82.741118"/>
     <use style="fill:#1f77b4;stroke:#1f77b4;" x="238.760164" xlink:href="#m28d0387b02" y="83.291035"/>
     <use style="fill:#1f77b4;stroke:#1f77b4;" x="238.566267" xlink:href="#m28d0387b02" y="83.880847"/>
     <use style="fill:#1f77b4;stroke:#1f77b4;" x="238.34845" xlink:href="#m28d0387b02" y="84.517873"/>
     <use style="fill:#1f77b4;stroke:#1f77b4;" x="238.105405" xlink:href="#m28d0387b02" y="85.209286"/>
     <use style="fill:#1f77b4;stroke:#1f77b4;" x="237.835398" xlink:href="#m28d0387b02" y="85.962459"/>
     <use style="fill:#1f77b4;stroke:#1f77b4;" x="237.536421" xlink:href="#m28d0387b02" y="86.785372"/>
     <use style="fill:#1f77b4;stroke:#1f77b4;" x="237.206213" xlink:href="#m28d0387b02" y="87.686746"/>
     <use style="fill:#1f77b4;stroke:#1f77b4;" x="236.842296" xlink:href="#m28d0387b02" y="88.676268"/>
     <use style="fill:#1f77b4;stroke:#1f77b4;" x="236.442015" xlink:href="#m28d0387b02" y="89.764819"/>
     <use style="fill:#1f77b4;stroke:#1f77b4;" x="236.002553" xlink:href="#m28d0387b02" y="90.96469"/>
     <use style="fill:#1f77b4;stroke:#1f77b4;" x="235.520996" xlink:href="#m28d0387b02" y="92.289905"/>
     <use style="fill:#1f77b4;stroke:#1f77b4;" x="234.994395" xlink:href="#m28d0387b02" y="93.756575"/>
     <use style="fill:#1f77b4;stroke:#1f77b4;" x="234.419849" xlink:href="#m28d0387b02" y="95.383294"/>
     <use style="fill:#1f77b4;stroke:#1f77b4;" x="233.794678" xlink:href="#m28d0387b02" y="97.191742"/>
     <use style="fill:#1f77b4;stroke:#1f77b4;" x="233.116639" xlink:href="#m28d0387b02" y="99.207399"/>
     <use style="fill:#1f77b4;stroke:#1f77b4;" x="232.384296" xlink:href="#m28d0387b02" y="101.460504"/>
     <use style="fill:#1f77b4;stroke:#1f77b4;" x="231.597586" xlink:href="#m28d0387b02" y="103.987383"/>
     <use style="fill:#1f77b4;stroke:#1f77b4;" x="230.758746" xlink:href="#m28d0387b02" y="106.832249"/>
     <use style="fill:#1f77b4;stroke:#1f77b4;" x="229.87385" xlink:href="#m28d0387b02" y="110.049746"/>
     <use style="fill:#1f77b4;stroke:#1f77b4;" x="228.955516" xlink:href="#m28d0387b02" y="113.708638"/>
     <use style="fill:#1f77b4;stroke:#1f77b4;" x="228.027883" xlink:href="#m28d0387b02" y="117.897118"/>
     <use style="fill:#1f77b4;stroke:#1f77b4;" x="227.13643" xlink:href="#m28d0387b02" y="122.730115"/>
     <use style="fill:#1f77b4;stroke:#1f77b4;" x="226.36881" xlink:href="#m28d0387b02" y="128.356852"/>
     <use style="fill:#1f77b4;stroke:#1f77b4;" x="225.901902" xlink:href="#m28d0387b02" y="134.953206"/>
     <use style="fill:#1f77b4;stroke:#1f77b4;" x="226.100209" xlink:href="#m28d0387b02" y="142.607401"/>
     <use style="fill:#1f77b4;stroke:#1f77b4;" x="227.564559" xlink:href="#m28d0387b02" y="150.771869"/>
     <use style="fill:#1f77b4;stroke:#1f77b4;" x="230.543126" xlink:href="#m28d0387b02" y="157.81417"/>
     <use style="fill:#1f77b4;stroke:#1f77b4;" x="234.586965" xlink:href="#m28d0387b02" y="162.995739"/>
     <use style="fill:#1f77b4;stroke:#1f77b4;" x="239.349544" xlink:href="#m28d0387b02" y="166.756763"/>
     <use style="fill:#1f77b4;stroke:#1f77b4;" x="244.720242" xlink:href="#m28d0387b02" y="169.574374"/>
     <use style="fill:#1f77b4;stroke:#1f77b4;" x="250.689027" xlink:href="#m28d0387b02" y="171.754673"/>
     <use style="fill:#1f77b4;stroke:#1f77b4;" x="257.28549" xlink:href="#m28d0387b02" y="173.486702"/>
     <use style="fill:#1f77b4;stroke:#1f77b4;" x="264.558229" xlink:href="#m28d0387b02" y="174.891407"/>
     <use style="fill:#1f77b4;stroke:#1f77b4;" x="272.567702" xlink:href="#m28d0387b02" y="176.049562"/>
     <use style="fill:#1f77b4;stroke:#1f77b4;" x="281.383727" xlink:href="#m28d0387b02" y="177.017244"/>
     <use style="fill:#1f77b4;stroke:#1f77b4;" x="291.084785" xlink:href="#m28d0387b02" y="177.834681"/>
     <use style="fill:#1f77b4;stroke:#1f77b4;" x="301.758106" xlink:href="#m28d0387b02" y="178.531536"/>
     <use style="fill:#1f77b4;stroke:#1f77b4;" x="313.500147" xlink:href="#m28d0387b02" y="179.130195"/>
     <use style="fill:#1f77b4;stroke:#1f77b4;" x="326.4173" xlink:href="#m28d0387b02" y="179.647886"/>
     <use style="fill:#1f77b4;stroke:#1f77b4;" x="340.626773" xlink:href="#m28d0387b02" y="180.098101"/>
     <use style="fill:#1f77b4;stroke:#1f77b4;" x="356.257602" xlink:href="#m28d0387b02" y="180.491553"/>
     <use style="fill:#1f77b4;stroke:#1f77b4;" x="373.451792" xlink:href="#m28d0387b02" y="180.836871"/>
    </g>
   </g>
   <g id="matplotlib.axis_1">
    <g id="xtick_1">
     <g id="line2d_1">
      <defs>
       <path d="M 0 0 
L 0 3.5 
" id="mccaf215cb4" style="stroke:#000000;stroke-width:0.8;"/>
      </defs>
      <g>
       <use style="stroke:#000000;stroke-width:0.8;" x="67.897117" xlink:href="#mccaf215cb4" y="189"/>
      </g>
     </g>
     <g id="text_1">
      <!-- 0 -->
      <defs>
       <path d="M 31.78125 66.40625 
Q 24.171875 66.40625 20.328125 58.90625 
Q 16.5 51.421875 16.5 36.375 
Q 16.5 21.390625 20.328125 13.890625 
Q 24.171875 6.390625 31.78125 6.390625 
Q 39.453125 6.390625 43.28125 13.890625 
Q 47.125 21.390625 47.125 36.375 
Q 47.125 51.421875 43.28125 58.90625 
Q 39.453125 66.40625 31.78125 66.40625 
z
M 31.78125 74.21875 
Q 44.046875 74.21875 50.515625 64.515625 
Q 56.984375 54.828125 56.984375 36.375 
Q 56.984375 17.96875 50.515625 8.265625 
Q 44.046875 -1.421875 31.78125 -1.421875 
Q 19.53125 -1.421875 13.0625 8.265625 
Q 6.59375 17.96875 6.59375 36.375 
Q 6.59375 54.828125 13.0625 64.515625 
Q 19.53125 74.21875 31.78125 74.21875 
z
" id="DejaVuSans-30"/>
      </defs>
      <g transform="translate(64.715867 203.598437)scale(0.1 -0.1)">
       <use xlink:href="#DejaVuSans-30"/>
      </g>
     </g>
    </g>
    <g id="xtick_2">
     <g id="line2d_2">
      <g>
       <use style="stroke:#000000;stroke-width:0.8;" x="140.451682" xlink:href="#mccaf215cb4" y="189"/>
      </g>
     </g>
     <g id="text_2">
      <!-- 5 -->
      <defs>
       <path d="M 10.796875 72.90625 
L 49.515625 72.90625 
L 49.515625 64.59375 
L 19.828125 64.59375 
L 19.828125 46.734375 
Q 21.96875 47.46875 24.109375 47.828125 
Q 26.265625 48.1875 28.421875 48.1875 
Q 40.625 48.1875 47.75 41.5 
Q 54.890625 34.8125 54.890625 23.390625 
Q 54.890625 11.625 47.5625 5.09375 
Q 40.234375 -1.421875 26.90625 -1.421875 
Q 22.3125 -1.421875 17.546875 -0.640625 
Q 12.796875 0.140625 7.71875 1.703125 
L 7.71875 11.625 
Q 12.109375 9.234375 16.796875 8.0625 
Q 21.484375 6.890625 26.703125 6.890625 
Q 35.15625 6.890625 40.078125 11.328125 
Q 45.015625 15.765625 45.015625 23.390625 
Q 45.015625 31 40.078125 35.4375 
Q 35.15625 39.890625 26.703125 39.890625 
Q 22.75 39.890625 18.8125 39.015625 
Q 14.890625 38.140625 10.796875 36.28125 
z
" id="DejaVuSans-35"/>
      </defs>
      <g transform="translate(137.270432 203.598437)scale(0.1 -0.1)">
       <use xlink:href="#DejaVuSans-35"/>
      </g>
     </g>
    </g>
    <g id="xtick_3">
     <g id="line2d_3">
      <g>
       <use style="stroke:#000000;stroke-width:0.8;" x="213.006247" xlink:href="#mccaf215cb4" y="189"/>
      </g>
     </g>
     <g id="text_3">
      <!-- 10 -->
      <defs>
       <path d="M 12.40625 8.296875 
L 28.515625 8.296875 
L 28.515625 63.921875 
L 10.984375 60.40625 
L 10.984375 69.390625 
L 28.421875 72.90625 
L 38.28125 72.90625 
L 38.28125 8.296875 
L 54.390625 8.296875 
L 54.390625 0 
L 12.40625 0 
z
" id="DejaVuSans-31"/>
      </defs>
      <g transform="translate(206.643747 203.598437)scale(0.1 -0.1)">
       <use xlink:href="#DejaVuSans-31"/>
       <use x="63.623047" xlink:href="#DejaVuSans-30"/>
      </g>
     </g>
    </g>
    <g id="xtick_4">
     <g id="line2d_4">
      <g>
       <use style="stroke:#000000;stroke-width:0.8;" x="285.560812" xlink:href="#mccaf215cb4" y="189"/>
      </g>
     </g>
     <g id="text_4">
      <!-- 15 -->
      <g transform="translate(279.198312 203.598437)scale(0.1 -0.1)">
       <use xlink:href="#DejaVuSans-31"/>
       <use x="63.623047" xlink:href="#DejaVuSans-35"/>
      </g>
     </g>
    </g>
    <g id="xtick_5">
     <g id="line2d_5">
      <g>
       <use style="stroke:#000000;stroke-width:0.8;" x="358.115376" xlink:href="#mccaf215cb4" y="189"/>
      </g>
     </g>
     <g id="text_5">
      <!-- 20 -->
      <defs>
       <path d="M 19.1875 8.296875 
L 53.609375 8.296875 
L 53.609375 0 
L 7.328125 0 
L 7.328125 8.296875 
Q 12.9375 14.109375 22.625 23.890625 
Q 32.328125 33.6875 34.8125 36.53125 
Q 39.546875 41.84375 41.421875 45.53125 
Q 43.3125 49.21875 43.3125 52.78125 
Q 43.3125 58.59375 39.234375 62.25 
Q 35.15625 65.921875 28.609375 65.921875 
Q 23.96875 65.921875 18.8125 64.3125 
Q 13.671875 62.703125 7.8125 59.421875 
L 7.8125 69.390625 
Q 13.765625 71.78125 18.9375 73 
Q 24.125 74.21875 28.421875 74.21875 
Q 39.75 74.21875 46.484375 68.546875 
Q 53.21875 62.890625 53.21875 53.421875 
Q 53.21875 48.921875 51.53125 44.890625 
Q 49.859375 40.875 45.40625 35.40625 
Q 44.1875 33.984375 37.640625 27.21875 
Q 31.109375 20.453125 19.1875 8.296875 
z
" id="DejaVuSans-32"/>
      </defs>
      <g transform="translate(351.752876 203.598437)scale(0.1 -0.1)">
       <use xlink:href="#DejaVuSans-32"/>
       <use x="63.623047" xlink:href="#DejaVuSans-30"/>
      </g>
     </g>
    </g>
    <g id="text_6">
     <!-- lambda -->
     <defs>
      <path d="M 9.421875 75.984375 
L 18.40625 75.984375 
L 18.40625 0 
L 9.421875 0 
z
" id="DejaVuSans-6c"/>
      <path d="M 34.28125 27.484375 
Q 23.390625 27.484375 19.1875 25 
Q 14.984375 22.515625 14.984375 16.5 
Q 14.984375 11.71875 18.140625 8.90625 
Q 21.296875 6.109375 26.703125 6.109375 
Q 34.1875 6.109375 38.703125 11.40625 
Q 43.21875 16.703125 43.21875 25.484375 
L 43.21875 27.484375 
z
M 52.203125 31.203125 
L 52.203125 0 
L 43.21875 0 
L 43.21875 8.296875 
Q 40.140625 3.328125 35.546875 0.953125 
Q 30.953125 -1.421875 24.3125 -1.421875 
Q 15.921875 -1.421875 10.953125 3.296875 
Q 6 8.015625 6 15.921875 
Q 6 25.140625 12.171875 29.828125 
Q 18.359375 34.515625 30.609375 34.515625 
L 43.21875 34.515625 
L 43.21875 35.40625 
Q 43.21875 41.609375 39.140625 45 
Q 35.0625 48.390625 27.6875 48.390625 
Q 23 48.390625 18.546875 47.265625 
Q 14.109375 46.140625 10.015625 43.890625 
L 10.015625 52.203125 
Q 14.9375 54.109375 19.578125 55.046875 
Q 24.21875 56 28.609375 56 
Q 40.484375 56 46.34375 49.84375 
Q 52.203125 43.703125 52.203125 31.203125 
z
" id="DejaVuSans-61"/>
      <path d="M 52 44.1875 
Q 55.375 50.25 60.0625 53.125 
Q 64.75 56 71.09375 56 
Q 79.640625 56 84.28125 50.015625 
Q 88.921875 44.046875 88.921875 33.015625 
L 88.921875 0 
L 79.890625 0 
L 79.890625 32.71875 
Q 79.890625 40.578125 77.09375 44.375 
Q 74.3125 48.1875 68.609375 48.1875 
Q 61.625 48.1875 57.5625 43.546875 
Q 53.515625 38.921875 53.515625 30.90625 
L 53.515625 0 
L 44.484375 0 
L 44.484375 32.71875 
Q 44.484375 40.625 41.703125 44.40625 
Q 38.921875 48.1875 33.109375 48.1875 
Q 26.21875 48.1875 22.15625 43.53125 
Q 18.109375 38.875 18.109375 30.90625 
L 18.109375 0 
L 9.078125 0 
L 9.078125 54.6875 
L 18.109375 54.6875 
L 18.109375 46.1875 
Q 21.1875 51.21875 25.484375 53.609375 
Q 29.78125 56 35.6875 56 
Q 41.65625 56 45.828125 52.96875 
Q 50 49.953125 52 44.1875 
z
" id="DejaVuSans-6d"/>
      <path d="M 48.6875 27.296875 
Q 48.6875 37.203125 44.609375 42.84375 
Q 40.53125 48.484375 33.40625 48.484375 
Q 26.265625 48.484375 22.1875 42.84375 
Q 18.109375 37.203125 18.109375 27.296875 
Q 18.109375 17.390625 22.1875 11.75 
Q 26.265625 6.109375 33.40625 6.109375 
Q 40.53125 6.109375 44.609375 11.75 
Q 48.6875 17.390625 48.6875 27.296875 
z
M 18.109375 46.390625 
Q 20.953125 51.265625 25.265625 53.625 
Q 29.59375 56 35.59375 56 
Q 45.5625 56 51.78125 48.09375 
Q 58.015625 40.1875 58.015625 27.296875 
Q 58.015625 14.40625 51.78125 6.484375 
Q 45.5625 -1.421875 35.59375 -1.421875 
Q 29.59375 -1.421875 25.265625 0.953125 
Q 20.953125 3.328125 18.109375 8.203125 
L 18.109375 0 
L 9.078125 0 
L 9.078125 75.984375 
L 18.109375 75.984375 
z
" id="DejaVuSans-62"/>
      <path d="M 45.40625 46.390625 
L 45.40625 75.984375 
L 54.390625 75.984375 
L 54.390625 0 
L 45.40625 0 
L 45.40625 8.203125 
Q 42.578125 3.328125 38.25 0.953125 
Q 33.9375 -1.421875 27.875 -1.421875 
Q 17.96875 -1.421875 11.734375 6.484375 
Q 5.515625 14.40625 5.515625 27.296875 
Q 5.515625 40.1875 11.734375 48.09375 
Q 17.96875 56 27.875 56 
Q 33.9375 56 38.25 53.625 
Q 42.578125 51.265625 45.40625 46.390625 
z
M 14.796875 27.296875 
Q 14.796875 17.390625 18.875 11.75 
Q 22.953125 6.109375 30.078125 6.109375 
Q 37.203125 6.109375 41.296875 11.75 
Q 45.40625 17.390625 45.40625 27.296875 
Q 45.40625 37.203125 41.296875 42.84375 
Q 37.203125 48.484375 30.078125 48.484375 
Q 22.953125 48.484375 18.875 42.84375 
Q 14.796875 37.203125 14.796875 27.296875 
z
" id="DejaVuSans-64"/>
     </defs>
     <g transform="translate(202.664062 217.276563)scale(0.1 -0.1)">
      <use xlink:href="#DejaVuSans-6c"/>
      <use x="27.783203" xlink:href="#DejaVuSans-61"/>
      <use x="89.0625" xlink:href="#DejaVuSans-6d"/>
      <use x="186.474609" xlink:href="#DejaVuSans-62"/>
      <use x="249.951172" xlink:href="#DejaVuSans-64"/>
      <use x="313.427734" xlink:href="#DejaVuSans-61"/>
     </g>
    </g>
   </g>
   <g id="matplotlib.axis_2">
    <g id="ytick_1">
     <g id="line2d_6">
      <defs>
       <path d="M 0 0 
L -3.5 0 
" id="m43b99e6bf5" style="stroke:#000000;stroke-width:0.8;"/>
      </defs>
      <g>
       <use style="stroke:#000000;stroke-width:0.8;" x="54" xlink:href="#m43b99e6bf5" y="183.753115"/>
      </g>
     </g>
     <g id="text_7">
      <!-- 0.0 -->
      <defs>
       <path d="M 10.6875 12.40625 
L 21 12.40625 
L 21 0 
L 10.6875 0 
z
" id="DejaVuSans-2e"/>
      </defs>
      <g transform="translate(31.096875 187.552334)scale(0.1 -0.1)">
       <use xlink:href="#DejaVuSans-30"/>
       <use x="63.623047" xlink:href="#DejaVuSans-2e"/>
       <use x="95.410156" xlink:href="#DejaVuSans-30"/>
      </g>
     </g>
    </g>
    <g id="ytick_2">
     <g id="line2d_7">
      <g>
       <use style="stroke:#000000;stroke-width:0.8;" x="54" xlink:href="#m43b99e6bf5" y="163.357184"/>
      </g>
     </g>
     <g id="text_8">
      <!-- 0.5 -->
      <g transform="translate(31.096875 167.156403)scale(0.1 -0.1)">
       <use xlink:href="#DejaVuSans-30"/>
       <use x="63.623047" xlink:href="#DejaVuSans-2e"/>
       <use x="95.410156" xlink:href="#DejaVuSans-35"/>
      </g>
     </g>
    </g>
    <g id="ytick_3">
     <g id="line2d_8">
      <g>
       <use style="stroke:#000000;stroke-width:0.8;" x="54" xlink:href="#m43b99e6bf5" y="142.961254"/>
      </g>
     </g>
     <g id="text_9">
      <!-- 1.0 -->
      <g transform="translate(31.096875 146.760473)scale(0.1 -0.1)">
       <use xlink:href="#DejaVuSans-31"/>
       <use x="63.623047" xlink:href="#DejaVuSans-2e"/>
       <use x="95.410156" xlink:href="#DejaVuSans-30"/>
      </g>
     </g>
    </g>
    <g id="ytick_4">
     <g id="line2d_9">
      <g>
       <use style="stroke:#000000;stroke-width:0.8;" x="54" xlink:href="#m43b99e6bf5" y="122.565324"/>
      </g>
     </g>
     <g id="text_10">
      <!-- 1.5 -->
      <g transform="translate(31.096875 126.364542)scale(0.1 -0.1)">
       <use xlink:href="#DejaVuSans-31"/>
       <use x="63.623047" xlink:href="#DejaVuSans-2e"/>
       <use x="95.410156" xlink:href="#DejaVuSans-35"/>
      </g>
     </g>
    </g>
    <g id="ytick_5">
     <g id="line2d_10">
      <g>
       <use style="stroke:#000000;stroke-width:0.8;" x="54" xlink:href="#m43b99e6bf5" y="102.169393"/>
      </g>
     </g>
     <g id="text_11">
      <!-- 2.0 -->
      <g transform="translate(31.096875 105.968612)scale(0.1 -0.1)">
       <use xlink:href="#DejaVuSans-32"/>
       <use x="63.623047" xlink:href="#DejaVuSans-2e"/>
       <use x="95.410156" xlink:href="#DejaVuSans-30"/>
      </g>
     </g>
    </g>
    <g id="ytick_6">
     <g id="line2d_11">
      <g>
       <use style="stroke:#000000;stroke-width:0.8;" x="54" xlink:href="#m43b99e6bf5" y="81.773463"/>
      </g>
     </g>
     <g id="text_12">
      <!-- 2.5 -->
      <g transform="translate(31.096875 85.572681)scale(0.1 -0.1)">
       <use xlink:href="#DejaVuSans-32"/>
       <use x="63.623047" xlink:href="#DejaVuSans-2e"/>
       <use x="95.410156" xlink:href="#DejaVuSans-35"/>
      </g>
     </g>
    </g>
    <g id="ytick_7">
     <g id="line2d_12">
      <g>
       <use style="stroke:#000000;stroke-width:0.8;" x="54" xlink:href="#m43b99e6bf5" y="61.377532"/>
      </g>
     </g>
     <g id="text_13">
      <!-- 3.0 -->
      <defs>
       <path d="M 40.578125 39.3125 
Q 47.65625 37.796875 51.625 33 
Q 55.609375 28.21875 55.609375 21.1875 
Q 55.609375 10.40625 48.1875 4.484375 
Q 40.765625 -1.421875 27.09375 -1.421875 
Q 22.515625 -1.421875 17.65625 -0.515625 
Q 12.796875 0.390625 7.625 2.203125 
L 7.625 11.71875 
Q 11.71875 9.328125 16.59375 8.109375 
Q 21.484375 6.890625 26.8125 6.890625 
Q 36.078125 6.890625 40.9375 10.546875 
Q 45.796875 14.203125 45.796875 21.1875 
Q 45.796875 27.640625 41.28125 31.265625 
Q 36.765625 34.90625 28.71875 34.90625 
L 20.21875 34.90625 
L 20.21875 43.015625 
L 29.109375 43.015625 
Q 36.375 43.015625 40.234375 45.921875 
Q 44.09375 48.828125 44.09375 54.296875 
Q 44.09375 59.90625 40.109375 62.90625 
Q 36.140625 65.921875 28.71875 65.921875 
Q 24.65625 65.921875 20.015625 65.03125 
Q 15.375 64.15625 9.8125 62.3125 
L 9.8125 71.09375 
Q 15.4375 72.65625 20.34375 73.4375 
Q 25.25 74.21875 29.59375 74.21875 
Q 40.828125 74.21875 47.359375 69.109375 
Q 53.90625 64.015625 53.90625 55.328125 
Q 53.90625 49.265625 50.4375 45.09375 
Q 46.96875 40.921875 40.578125 39.3125 
z
" id="DejaVuSans-33"/>
      </defs>
      <g transform="translate(31.096875 65.176751)scale(0.1 -0.1)">
       <use xlink:href="#DejaVuSans-33"/>
       <use x="63.623047" xlink:href="#DejaVuSans-2e"/>
       <use x="95.410156" xlink:href="#DejaVuSans-30"/>
      </g>
     </g>
    </g>
    <g id="ytick_8">
     <g id="line2d_13">
      <g>
       <use style="stroke:#000000;stroke-width:0.8;" x="54" xlink:href="#m43b99e6bf5" y="40.981602"/>
      </g>
     </g>
     <g id="text_14">
      <!-- 3.5 -->
      <g transform="translate(31.096875 44.78082)scale(0.1 -0.1)">
       <use xlink:href="#DejaVuSans-33"/>
       <use x="63.623047" xlink:href="#DejaVuSans-2e"/>
       <use x="95.410156" xlink:href="#DejaVuSans-35"/>
      </g>
     </g>
    </g>
    <g id="text_15">
     <!-- ||x|| -->
     <defs>
      <path d="M 21 76.421875 
L 21 -23.578125 
L 12.703125 -23.578125 
L 12.703125 76.421875 
z
" id="DejaVuSans-7c"/>
      <path d="M 54.890625 54.6875 
L 35.109375 28.078125 
L 55.90625 0 
L 45.3125 0 
L 29.390625 21.484375 
L 13.484375 0 
L 2.875 0 
L 24.125 28.609375 
L 4.6875 54.6875 
L 15.28125 54.6875 
L 29.78125 35.203125 
L 44.28125 54.6875 
z
" id="DejaVuSans-78"/>
     </defs>
     <g transform="translate(24.739062 117.156875)rotate(-90)scale(0.1 -0.1)">
      <use xlink:href="#DejaVuSans-7c"/>
      <use x="33.691406" xlink:href="#DejaVuSans-7c"/>
      <use x="67.382812" xlink:href="#DejaVuSans-78"/>
      <use x="126.5625" xlink:href="#DejaVuSans-7c"/>
      <use x="160.253906" xlink:href="#DejaVuSans-7c"/>
     </g>
    </g>
   </g>
   <g id="patch_3">
    <path d="M 54 189 
L 54 25.92 
" style="fill:none;stroke:#000000;stroke-linecap:square;stroke-linejoin:miter;stroke-width:0.8;"/>
   </g>
   <g id="patch_4">
    <path d="M 388.8 189 
L 388.8 25.92 
" style="fill:none;stroke:#000000;stroke-linecap:square;stroke-linejoin:miter;stroke-width:0.8;"/>
   </g>
   <g id="patch_5">
    <path d="M 54 189 
L 388.8 189 
" style="fill:none;stroke:#000000;stroke-linecap:square;stroke-linejoin:miter;stroke-width:0.8;"/>
   </g>
   <g id="patch_6">
    <path d="M 54 25.92 
L 388.8 25.92 
" style="fill:none;stroke:#000000;stroke-linecap:square;stroke-linejoin:miter;stroke-width:0.8;"/>
   </g>
  </g>
 </g>
 <defs>
  <clipPath id="pec61e2ce75">
   <rect height="163.08" width="334.8" x="54" y="25.92"/>
  </clipPath>
 </defs>
</svg>
