<?xml version="1.0" encoding="utf-8" standalone="no"?>
<!DOCTYPE svg PUBLIC "-//W3C//DTD SVG 1.1//EN"
  "http://www.w3.org/Graphics/SVG/1.1/DTD/svg11.dtd">
<!-- Created with matplotlib (http://matplotlib.org/) -->
<svg height="216pt" version="1.1" viewBox="0 0 432 216" width="432pt" xmlns="http://www.w3.org/2000/svg" xmlns:xlink="http://www.w3.org/1999/xlink">
 <defs>
  <style type="text/css">
*{stroke-linecap:butt;stroke-linejoin:round;}
  </style>
 </defs>
 <g id="figure_1">
  <g id="patch_1">
   <path d="M 0 216 
L 432 216 
L 432 0 
L 0 0 
z
" style="fill:#ffffff;"/>
  </g>
  <g id="axes_1">
   <g id="patch_2">
    <path d="M 54 189 
L 388.8 189 
L 388.8 25.92 
L 54 25.92 
z
" style="fill:#ffffff;"/>
   </g>
   <g id="PathCollection_1">
    <defs>
     <path d="M 0 3 
C 0.795609 3 1.55874 2.683901 2.12132 2.12132 
C 2.683901 1.55874 3 0.795609 3 0 
C 3 -0.795609 2.683901 -1.55874 2.12132 -2.12132 
C 1.55874 -2.683901 0.795609 -3 0 -3 
C -0.795609 -3 -1.55874 -2.683901 -2.12132 -2.12132 
C -2.683901 -1.55874 -3 -0.795609 -3 0 
C -3 0.795609 -2.683901 1.55874 -2.12132 2.12132 
C -1.55874 2.683901 -0.795609 3 0 3 
z
" id="m110d041f7e" style="stroke:#1f77b4;"/>
    </defs>
    <g clip-path="url(#pb3a50ea428)">
     <use style="fill:#1f77b4;stroke:#1f77b4;" x="69.349086" xlink:href="#m110d041f7e" y="161.042654"/>
     <use style="fill:#1f77b4;stroke:#1f77b4;" x="69.363695" xlink:href="#m110d041f7e" y="160.94258"/>
     <use style="fill:#1f77b4;stroke:#1f77b4;" x="70.143841" xlink:href="#m110d041f7e" y="161.657044"/>
     <use style="fill:#1f77b4;stroke:#1f77b4;" x="72.371442" xlink:href="#m110d041f7e" y="151.388966"/>
     <use style="fill:#1f77b4;stroke:#1f77b4;" x="75.395779" xlink:href="#m110d041f7e" y="141.014576"/>
     <use style="fill:#1f77b4;stroke:#1f77b4;" x="79.199357" xlink:href="#m110d041f7e" y="130.630269"/>
     <use style="fill:#1f77b4;stroke:#1f77b4;" x="83.772019" xlink:href="#m110d041f7e" y="120.260071"/>
     <use style="fill:#1f77b4;stroke:#1f77b4;" x="89.119631" xlink:href="#m110d041f7e" y="109.888371"/>
     <use style="fill:#1f77b4;stroke:#1f77b4;" x="95.264933" xlink:href="#m110d041f7e" y="99.481637"/>
     <use style="fill:#1f77b4;stroke:#1f77b4;" x="102.245969" xlink:href="#m110d041f7e" y="88.999843"/>
     <use style="fill:#1f77b4;stroke:#1f77b4;" x="110.114385" xlink:href="#m110d041f7e" y="78.401749"/>
     <use style="fill:#1f77b4;stroke:#1f77b4;" x="118.934207" xlink:href="#m110d041f7e" y="67.647025"/>
     <use style="fill:#1f77b4;stroke:#1f77b4;" x="128.781184" xlink:href="#m110d041f7e" y="56.696925"/>
     <use style="fill:#1f77b4;stroke:#1f77b4;" x="139.742605" xlink:href="#m110d041f7e" y="45.514311"/>
     <use style="fill:#1f77b4;stroke:#1f77b4;" x="151.91747" xlink:href="#m110d041f7e" y="34.063409"/>
     <use style="fill:#1f77b4;stroke:#1f77b4;" x="187.955132" xlink:href="#m110d041f7e" y="167.293419"/>
     <use style="fill:#1f77b4;stroke:#1f77b4;" x="211.873126" xlink:href="#m110d041f7e" y="134.368438"/>
     <use style="fill:#1f77b4;stroke:#1f77b4;" x="226.715487" xlink:href="#m110d041f7e" y="125.321483"/>
     <use style="fill:#1f77b4;stroke:#1f77b4;" x="233.164376" xlink:href="#m110d041f7e" y="99.553722"/>
     <use style="fill:#1f77b4;stroke:#1f77b4;" x="233.922413" xlink:href="#m110d041f7e" y="95.772579"/>
     <use style="fill:#1f77b4;stroke:#1f77b4;" x="233.901094" xlink:href="#m110d041f7e" y="95.656686"/>
     <use style="fill:#1f77b4;stroke:#1f77b4;" x="233.8606" xlink:href="#m110d041f7e" y="95.55238"/>
     <use style="fill:#1f77b4;stroke:#1f77b4;" x="233.801013" xlink:href="#m110d041f7e" y="95.480815"/>
     <use style="fill:#1f77b4;stroke:#1f77b4;" x="233.728143" xlink:href="#m110d041f7e" y="95.447179"/>
     <use style="fill:#1f77b4;stroke:#1f77b4;" x="233.645783" xlink:href="#m110d041f7e" y="95.445454"/>
     <use style="fill:#1f77b4;stroke:#1f77b4;" x="233.555112" xlink:href="#m110d041f7e" y="95.469958"/>
     <use style="fill:#1f77b4;stroke:#1f77b4;" x="233.456124" xlink:href="#m110d041f7e" y="95.5174"/>
     <use style="fill:#1f77b4;stroke:#1f77b4;" x="233.348317" xlink:href="#m110d041f7e" y="95.586248"/>
     <use style="fill:#1f77b4;stroke:#1f77b4;" x="233.230949" xlink:href="#m110d041f7e" y="95.676106"/>
     <use style="fill:#1f77b4;stroke:#1f77b4;" x="233.103127" xlink:href="#m110d041f7e" y="95.787336"/>
     <use style="fill:#1f77b4;stroke:#1f77b4;" x="232.963834" xlink:href="#m110d041f7e" y="95.920823"/>
     <use style="fill:#1f77b4;stroke:#1f77b4;" x="232.81195" xlink:href="#m110d041f7e" y="96.077985"/>
     <use style="fill:#1f77b4;stroke:#1f77b4;" x="232.646231" xlink:href="#m110d041f7e" y="96.260531"/>
     <use style="fill:#1f77b4;stroke:#1f77b4;" x="232.465315" xlink:href="#m110d041f7e" y="96.470557"/>
     <use style="fill:#1f77b4;stroke:#1f77b4;" x="232.267709" xlink:href="#m110d041f7e" y="96.710515"/>
     <use style="fill:#1f77b4;stroke:#1f77b4;" x="232.05178" xlink:href="#m110d041f7e" y="96.983212"/>
     <use style="fill:#1f77b4;stroke:#1f77b4;" x="231.81574" xlink:href="#m110d041f7e" y="97.291863"/>
     <use style="fill:#1f77b4;stroke:#1f77b4;" x="231.557625" xlink:href="#m110d041f7e" y="97.640019"/>
     <use style="fill:#1f77b4;stroke:#1f77b4;" x="231.275298" xlink:href="#m110d041f7e" y="98.031755"/>
     <use style="fill:#1f77b4;stroke:#1f77b4;" x="230.966415" xlink:href="#m110d041f7e" y="98.471595"/>
     <use style="fill:#1f77b4;stroke:#1f77b4;" x="230.628413" xlink:href="#m110d041f7e" y="98.964609"/>
     <use style="fill:#1f77b4;stroke:#1f77b4;" x="230.258492" xlink:href="#m110d041f7e" y="99.516458"/>
     <use style="fill:#1f77b4;stroke:#1f77b4;" x="229.853596" xlink:href="#m110d041f7e" y="100.133483"/>
     <use style="fill:#1f77b4;stroke:#1f77b4;" x="229.410384" xlink:href="#m110d041f7e" y="100.822759"/>
     <use style="fill:#1f77b4;stroke:#1f77b4;" x="228.92522" xlink:href="#m110d041f7e" y="101.59222"/>
     <use style="fill:#1f77b4;stroke:#1f77b4;" x="228.394136" xlink:href="#m110d041f7e" y="102.450733"/>
     <use style="fill:#1f77b4;stroke:#1f77b4;" x="227.812814" xlink:href="#m110d041f7e" y="103.408221"/>
     <use style="fill:#1f77b4;stroke:#1f77b4;" x="227.176565" xlink:href="#m110d041f7e" y="104.475843"/>
     <use style="fill:#1f77b4;stroke:#1f77b4;" x="226.480284" xlink:href="#m110d041f7e" y="105.666057"/>
     <use style="fill:#1f77b4;stroke:#1f77b4;" x="225.718447" xlink:href="#m110d041f7e" y="106.992903"/>
     <use style="fill:#1f77b4;stroke:#1f77b4;" x="224.885065" xlink:href="#m110d041f7e" y="108.47212"/>
     <use style="fill:#1f77b4;stroke:#1f77b4;" x="223.973652" xlink:href="#m110d041f7e" y="110.121364"/>
     <use style="fill:#1f77b4;stroke:#1f77b4;" x="222.977194" xlink:href="#m110d041f7e" y="111.960434"/>
     <use style="fill:#1f77b4;stroke:#1f77b4;" x="221.88809" xlink:href="#m110d041f7e" y="114.01145"/>
     <use style="fill:#1f77b4;stroke:#1f77b4;" x="220.698075" xlink:href="#m110d041f7e" y="116.29897"/>
     <use style="fill:#1f77b4;stroke:#1f77b4;" x="219.398097" xlink:href="#m110d041f7e" y="118.85"/>
     <use style="fill:#1f77b4;stroke:#1f77b4;" x="217.978082" xlink:href="#m110d041f7e" y="121.693651"/>
     <use style="fill:#1f77b4;stroke:#1f77b4;" x="216.426521" xlink:href="#m110d041f7e" y="124.860269"/>
     <use style="fill:#1f77b4;stroke:#1f77b4;" x="214.729701" xlink:href="#m110d041f7e" y="128.379394"/>
     <use style="fill:#1f77b4;stroke:#1f77b4;" x="212.870266" xlink:href="#m110d041f7e" y="132.275621"/>
     <use style="fill:#1f77b4;stroke:#1f77b4;" x="210.824648" xlink:href="#m110d041f7e" y="136.560624"/>
     <use style="fill:#1f77b4;stroke:#1f77b4;" x="208.55873" xlink:href="#m110d041f7e" y="141.218587"/>
     <use style="fill:#1f77b4;stroke:#1f77b4;" x="206.021625" xlink:href="#m110d041f7e" y="146.181981"/>
     <use style="fill:#1f77b4;stroke:#1f77b4;" x="203.140187" xlink:href="#m110d041f7e" y="151.299283"/>
     <use style="fill:#1f77b4;stroke:#1f77b4;" x="199.823323" xlink:href="#m110d041f7e" y="156.315257"/>
     <use style="fill:#1f77b4;stroke:#1f77b4;" x="195.986978" xlink:href="#m110d041f7e" y="160.914847"/>
     <use style="fill:#1f77b4;stroke:#1f77b4;" x="191.585059" xlink:href="#m110d041f7e" y="164.852619"/>
     <use style="fill:#1f77b4;stroke:#1f77b4;" x="186.606671" xlink:href="#m110d041f7e" y="168.058022"/>
     <use style="fill:#1f77b4;stroke:#1f77b4;" x="181.045299" xlink:href="#m110d041f7e" y="170.606402"/>
     <use style="fill:#1f77b4;stroke:#1f77b4;" x="174.879237" xlink:href="#m110d041f7e" y="172.626338"/>
     <use style="fill:#1f77b4;stroke:#1f77b4;" x="168.069607" xlink:href="#m110d041f7e" y="174.239882"/>
     <use style="fill:#1f77b4;stroke:#1f77b4;" x="160.56393" xlink:href="#m110d041f7e" y="175.544171"/>
     <use style="fill:#1f77b4;stroke:#1f77b4;" x="152.299057" xlink:href="#m110d041f7e" y="176.611838"/>
     <use style="fill:#1f77b4;stroke:#1f77b4;" x="143.202629" xlink:href="#m110d041f7e" y="177.496286"/>
     <use style="fill:#1f77b4;stroke:#1f77b4;" x="133.193503" xlink:href="#m110d041f7e" y="178.236876"/>
     <use style="fill:#1f77b4;stroke:#1f77b4;" x="122.181576" xlink:href="#m110d041f7e" y="178.862927"/>
     <use style="fill:#1f77b4;stroke:#1f77b4;" x="110.067265" xlink:href="#m110d041f7e" y="179.396575"/>
     <use style="fill:#1f77b4;stroke:#1f77b4;" x="96.740755" xlink:href="#m110d041f7e" y="179.85478"/>
     <use style="fill:#1f77b4;stroke:#1f77b4;" x="82.081091" xlink:href="#m110d041f7e" y="180.250711"/>
     <use style="fill:#1f77b4;stroke:#1f77b4;" x="69.821264" xlink:href="#m110d041f7e" y="180.594733"/>
     <use style="fill:#1f77b4;stroke:#1f77b4;" x="79.441723" xlink:href="#m110d041f7e" y="180.766126"/>
     <use style="fill:#1f77b4;stroke:#1f77b4;" x="90.026414" xlink:href="#m110d041f7e" y="180.047884"/>
     <use style="fill:#1f77b4;stroke:#1f77b4;" x="101.673615" xlink:href="#m110d041f7e" y="179.698006"/>
     <use style="fill:#1f77b4;stroke:#1f77b4;" x="114.485146" xlink:href="#m110d041f7e" y="179.217213"/>
     <use style="fill:#1f77b4;stroke:#1f77b4;" x="128.576971" xlink:href="#m110d041f7e" y="178.519254"/>
     <use style="fill:#1f77b4;stroke:#1f77b4;" x="144.075768" xlink:href="#m110d041f7e" y="177.421489"/>
     <use style="fill:#1f77b4;stroke:#1f77b4;" x="161.117228" xlink:href="#m110d041f7e" y="175.460689"/>
     <use style="fill:#1f77b4;stroke:#1f77b4;" x="179.827917" xlink:href="#m110d041f7e" y="171.060564"/>
     <use style="fill:#1f77b4;stroke:#1f77b4;" x="200.083203" xlink:href="#m110d041f7e" y="155.957978"/>
     <use style="fill:#1f77b4;stroke:#1f77b4;" x="220.147781" xlink:href="#m110d041f7e" y="117.37243"/>
     <use style="fill:#1f77b4;stroke:#1f77b4;" x="231.567357" xlink:href="#m110d041f7e" y="97.626709"/>
     <use style="fill:#1f77b4;stroke:#1f77b4;" x="233.303065" xlink:href="#m110d041f7e" y="95.619287"/>
     <use style="fill:#1f77b4;stroke:#1f77b4;" x="233.854716" xlink:href="#m110d041f7e" y="95.542351"/>
     <use style="fill:#1f77b4;stroke:#1f77b4;" x="233.894461" xlink:href="#m110d041f7e" y="95.633476"/>
     <use style="fill:#1f77b4;stroke:#1f77b4;" x="233.92342" xlink:href="#m110d041f7e" y="95.781302"/>
     <use style="fill:#1f77b4;stroke:#1f77b4;" x="233.932224" xlink:href="#m110d041f7e" y="95.977294"/>
     <use style="fill:#1f77b4;stroke:#1f77b4;" x="233.921491" xlink:href="#m110d041f7e" y="96.199665"/>
     <use style="fill:#1f77b4;stroke:#1f77b4;" x="233.895627" xlink:href="#m110d041f7e" y="96.439258"/>
     <use style="fill:#1f77b4;stroke:#1f77b4;" x="233.857452" xlink:href="#m110d041f7e" y="96.69505"/>
     <use style="fill:#1f77b4;stroke:#1f77b4;" x="233.808303" xlink:href="#m110d041f7e" y="96.968524"/>
     <use style="fill:#1f77b4;stroke:#1f77b4;" x="233.748643" xlink:href="#m110d041f7e" y="97.261913"/>
     <use style="fill:#1f77b4;stroke:#1f77b4;" x="233.678471" xlink:href="#m110d041f7e" y="97.577806"/>
     <use style="fill:#1f77b4;stroke:#1f77b4;" x="233.597441" xlink:href="#m110d041f7e" y="97.918982"/>
     <use style="fill:#1f77b4;stroke:#1f77b4;" x="233.504992" xlink:href="#m110d041f7e" y="98.288454"/>
     <use style="fill:#1f77b4;stroke:#1f77b4;" x="233.400398" xlink:href="#m110d041f7e" y="98.689507"/>
     <use style="fill:#1f77b4;stroke:#1f77b4;" x="233.282776" xlink:href="#m110d041f7e" y="99.125716"/>
     <use style="fill:#1f77b4;stroke:#1f77b4;" x="233.151134" xlink:href="#m110d041f7e" y="99.601043"/>
     <use style="fill:#1f77b4;stroke:#1f77b4;" x="233.004339" xlink:href="#m110d041f7e" y="100.119832"/>
     <use style="fill:#1f77b4;stroke:#1f77b4;" x="232.841161" xlink:href="#m110d041f7e" y="100.686937"/>
     <use style="fill:#1f77b4;stroke:#1f77b4;" x="232.660251" xlink:href="#m110d041f7e" y="101.307744"/>
     <use style="fill:#1f77b4;stroke:#1f77b4;" x="232.460164" xlink:href="#m110d041f7e" y="101.988292"/>
     <use style="fill:#1f77b4;stroke:#1f77b4;" x="232.239359" xlink:href="#m110d041f7e" y="102.735353"/>
     <use style="fill:#1f77b4;stroke:#1f77b4;" x="231.996221" xlink:href="#m110d041f7e" y="103.556569"/>
     <use style="fill:#1f77b4;stroke:#1f77b4;" x="231.729058" xlink:href="#m110d041f7e" y="104.460539"/>
     <use style="fill:#1f77b4;stroke:#1f77b4;" x="231.436177" xlink:href="#m110d041f7e" y="105.457086"/>
     <use style="fill:#1f77b4;stroke:#1f77b4;" x="231.115876" xlink:href="#m110d041f7e" y="106.557348"/>
     <use style="fill:#1f77b4;stroke:#1f77b4;" x="230.766552" xlink:href="#m110d041f7e" y="107.774105"/>
     <use style="fill:#1f77b4;stroke:#1f77b4;" x="230.386783" xlink:href="#m110d041f7e" y="109.122065"/>
     <use style="fill:#1f77b4;stroke:#1f77b4;" x="229.975493" xlink:href="#m110d041f7e" y="110.618262"/>
     <use style="fill:#1f77b4;stroke:#1f77b4;" x="229.532158" xlink:href="#m110d041f7e" y="112.282542"/>
     <use style="fill:#1f77b4;stroke:#1f77b4;" x="229.057167" xlink:href="#m110d041f7e" y="114.138211"/>
     <use style="fill:#1f77b4;stroke:#1f77b4;" x="228.552332" xlink:href="#m110d041f7e" y="116.212857"/>
     <use style="fill:#1f77b4;stroke:#1f77b4;" x="228.02172" xlink:href="#m110d041f7e" y="118.539408"/>
     <use style="fill:#1f77b4;stroke:#1f77b4;" x="227.472981" xlink:href="#m110d041f7e" y="121.157512"/>
     <use style="fill:#1f77b4;stroke:#1f77b4;" x="226.919587" xlink:href="#m110d041f7e" y="124.115234"/>
     <use style="fill:#1f77b4;stroke:#1f77b4;" x="226.384697" xlink:href="#m110d041f7e" y="127.470861"/>
     <use style="fill:#1f77b4;stroke:#1f77b4;" x="225.908153" xlink:href="#m110d041f7e" y="131.293832"/>
     <use style="fill:#1f77b4;stroke:#1f77b4;" x="225.559377" xlink:href="#m110d041f7e" y="135.660746"/>
     <use style="fill:#1f77b4;stroke:#1f77b4;" x="225.460246" xlink:href="#m110d041f7e" y="140.632337"/>
     <use style="fill:#1f77b4;stroke:#1f77b4;" x="225.814559" xlink:href="#m110d041f7e" y="146.169385"/>
     <use style="fill:#1f77b4;stroke:#1f77b4;" x="226.887215" xlink:href="#m110d041f7e" y="151.937099"/>
     <use style="fill:#1f77b4;stroke:#1f77b4;" x="228.816797" xlink:href="#m110d041f7e" y="157.250958"/>
     <use style="fill:#1f77b4;stroke:#1f77b4;" x="231.48619" xlink:href="#m110d041f7e" y="161.62828"/>
     <use style="fill:#1f77b4;stroke:#1f77b4;" x="234.72432" xlink:href="#m110d041f7e" y="165.082825"/>
     <use style="fill:#1f77b4;stroke:#1f77b4;" x="238.440433" xlink:href="#m110d041f7e" y="167.814553"/>
     <use style="fill:#1f77b4;stroke:#1f77b4;" x="242.608801" xlink:href="#m110d041f7e" y="170.008496"/>
     <use style="fill:#1f77b4;stroke:#1f77b4;" x="247.238258" xlink:href="#m110d041f7e" y="171.800293"/>
     <use style="fill:#1f77b4;stroke:#1f77b4;" x="252.356096" xlink:href="#m110d041f7e" y="173.285487"/>
     <use style="fill:#1f77b4;stroke:#1f77b4;" x="258.000919" xlink:href="#m110d041f7e" y="174.531983"/>
     <use style="fill:#1f77b4;stroke:#1f77b4;" x="264.219605" xlink:href="#m110d041f7e" y="175.58907"/>
     <use style="fill:#1f77b4;stroke:#1f77b4;" x="271.066104" xlink:href="#m110d041f7e" y="176.493361"/>
     <use style="fill:#1f77b4;stroke:#1f77b4;" x="278.601102" xlink:href="#m110d041f7e" y="177.272634"/>
     <use style="fill:#1f77b4;stroke:#1f77b4;" x="286.892139" xlink:href="#m110d041f7e" y="177.948377"/>
     <use style="fill:#1f77b4;stroke:#1f77b4;" x="296.01398" xlink:href="#m110d041f7e" y="178.53749"/>
     <use style="fill:#1f77b4;stroke:#1f77b4;" x="306.049159" xlink:href="#m110d041f7e" y="179.053459"/>
     <use style="fill:#1f77b4;stroke:#1f77b4;" x="317.088647" xlink:href="#m110d041f7e" y="179.507189"/>
     <use style="fill:#1f77b4;stroke:#1f77b4;" x="329.232633" xlink:href="#m110d041f7e" y="179.907595"/>
     <use style="fill:#1f77b4;stroke:#1f77b4;" x="342.591401" xlink:href="#m110d041f7e" y="180.262038"/>
     <use style="fill:#1f77b4;stroke:#1f77b4;" x="357.286316" xlink:href="#m110d041f7e" y="180.576653"/>
     <use style="fill:#1f77b4;stroke:#1f77b4;" x="373.450914" xlink:href="#m110d041f7e" y="180.856591"/>
    </g>
   </g>
   <g id="matplotlib.axis_1">
    <g id="xtick_1">
     <g id="line2d_1">
      <defs>
       <path d="M 0 0 
L 0 3.5 
" id="m8f7e3b3131" style="stroke:#000000;stroke-width:0.8;"/>
      </defs>
      <g>
       <use style="stroke:#000000;stroke-width:0.8;" x="67.888195" xlink:href="#m8f7e3b3131" y="189"/>
      </g>
     </g>
     <g id="text_1">
      <!-- 0 -->
      <defs>
       <path d="M 31.78125 66.40625 
Q 24.171875 66.40625 20.328125 58.90625 
Q 16.5 51.421875 16.5 36.375 
Q 16.5 21.390625 20.328125 13.890625 
Q 24.171875 6.390625 31.78125 6.390625 
Q 39.453125 6.390625 43.28125 13.890625 
Q 47.125 21.390625 47.125 36.375 
Q 47.125 51.421875 43.28125 58.90625 
Q 39.453125 66.40625 31.78125 66.40625 
z
M 31.78125 74.21875 
Q 44.046875 74.21875 50.515625 64.515625 
Q 56.984375 54.828125 56.984375 36.375 
Q 56.984375 17.96875 50.515625 8.265625 
Q 44.046875 -1.421875 31.78125 -1.421875 
Q 19.53125 -1.421875 13.0625 8.265625 
Q 6.59375 17.96875 6.59375 36.375 
Q 6.59375 54.828125 13.0625 64.515625 
Q 19.53125 74.21875 31.78125 74.21875 
z
" id="DejaVuSans-30"/>
      </defs>
      <g transform="translate(64.706945 203.598437)scale(0.1 -0.1)">
       <use xlink:href="#DejaVuSans-30"/>
      </g>
     </g>
    </g>
    <g id="xtick_2">
     <g id="line2d_2">
      <g>
       <use style="stroke:#000000;stroke-width:0.8;" x="140.932739" xlink:href="#m8f7e3b3131" y="189"/>
      </g>
     </g>
     <g id="text_2">
      <!-- 5 -->
      <defs>
       <path d="M 10.796875 72.90625 
L 49.515625 72.90625 
L 49.515625 64.59375 
L 19.828125 64.59375 
L 19.828125 46.734375 
Q 21.96875 47.46875 24.109375 47.828125 
Q 26.265625 48.1875 28.421875 48.1875 
Q 40.625 48.1875 47.75 41.5 
Q 54.890625 34.8125 54.890625 23.390625 
Q 54.890625 11.625 47.5625 5.09375 
Q 40.234375 -1.421875 26.90625 -1.421875 
Q 22.3125 -1.421875 17.546875 -0.640625 
Q 12.796875 0.140625 7.71875 1.703125 
L 7.71875 11.625 
Q 12.109375 9.234375 16.796875 8.0625 
Q 21.484375 6.890625 26.703125 6.890625 
Q 35.15625 6.890625 40.078125 11.328125 
Q 45.015625 15.765625 45.015625 23.390625 
Q 45.015625 31 40.078125 35.4375 
Q 35.15625 39.890625 26.703125 39.890625 
Q 22.75 39.890625 18.8125 39.015625 
Q 14.890625 38.140625 10.796875 36.28125 
z
" id="DejaVuSans-35"/>
      </defs>
      <g transform="translate(137.751489 203.598437)scale(0.1 -0.1)">
       <use xlink:href="#DejaVuSans-35"/>
      </g>
     </g>
    </g>
    <g id="xtick_3">
     <g id="line2d_3">
      <g>
       <use style="stroke:#000000;stroke-width:0.8;" x="213.977284" xlink:href="#m8f7e3b3131" y="189"/>
      </g>
     </g>
     <g id="text_3">
      <!-- 10 -->
      <defs>
       <path d="M 12.40625 8.296875 
L 28.515625 8.296875 
L 28.515625 63.921875 
L 10.984375 60.40625 
L 10.984375 69.390625 
L 28.421875 72.90625 
L 38.28125 72.90625 
L 38.28125 8.296875 
L 54.390625 8.296875 
L 54.390625 0 
L 12.40625 0 
z
" id="DejaVuSans-31"/>
      </defs>
      <g transform="translate(207.614784 203.598437)scale(0.1 -0.1)">
       <use xlink:href="#DejaVuSans-31"/>
       <use x="63.623047" xlink:href="#DejaVuSans-30"/>
      </g>
     </g>
    </g>
    <g id="xtick_4">
     <g id="line2d_4">
      <g>
       <use style="stroke:#000000;stroke-width:0.8;" x="287.021828" xlink:href="#m8f7e3b3131" y="189"/>
      </g>
     </g>
     <g id="text_4">
      <!-- 15 -->
      <g transform="translate(280.659328 203.598437)scale(0.1 -0.1)">
       <use xlink:href="#DejaVuSans-31"/>
       <use x="63.623047" xlink:href="#DejaVuSans-35"/>
      </g>
     </g>
    </g>
    <g id="xtick_5">
     <g id="line2d_5">
      <g>
       <use style="stroke:#000000;stroke-width:0.8;" x="360.066372" xlink:href="#m8f7e3b3131" y="189"/>
      </g>
     </g>
     <g id="text_5">
      <!-- 20 -->
      <defs>
       <path d="M 19.1875 8.296875 
L 53.609375 8.296875 
L 53.609375 0 
L 7.328125 0 
L 7.328125 8.296875 
Q 12.9375 14.109375 22.625 23.890625 
Q 32.328125 33.6875 34.8125 36.53125 
Q 39.546875 41.84375 41.421875 45.53125 
Q 43.3125 49.21875 43.3125 52.78125 
Q 43.3125 58.59375 39.234375 62.25 
Q 35.15625 65.921875 28.609375 65.921875 
Q 23.96875 65.921875 18.8125 64.3125 
Q 13.671875 62.703125 7.8125 59.421875 
L 7.8125 69.390625 
Q 13.765625 71.78125 18.9375 73 
Q 24.125 74.21875 28.421875 74.21875 
Q 39.75 74.21875 46.484375 68.546875 
Q 53.21875 62.890625 53.21875 53.421875 
Q 53.21875 48.921875 51.53125 44.890625 
Q 49.859375 40.875 45.40625 35.40625 
Q 44.1875 33.984375 37.640625 27.21875 
Q 31.109375 20.453125 19.1875 8.296875 
z
" id="DejaVuSans-32"/>
      </defs>
      <g transform="translate(353.703872 203.598437)scale(0.1 -0.1)">
       <use xlink:href="#DejaVuSans-32"/>
       <use x="63.623047" xlink:href="#DejaVuSans-30"/>
      </g>
     </g>
    </g>
    <g id="text_6">
     <!-- lambda -->
     <defs>
      <path d="M 9.421875 75.984375 
L 18.40625 75.984375 
L 18.40625 0 
L 9.421875 0 
z
" id="DejaVuSans-6c"/>
      <path d="M 34.28125 27.484375 
Q 23.390625 27.484375 19.1875 25 
Q 14.984375 22.515625 14.984375 16.5 
Q 14.984375 11.71875 18.140625 8.90625 
Q 21.296875 6.109375 26.703125 6.109375 
Q 34.1875 6.109375 38.703125 11.40625 
Q 43.21875 16.703125 43.21875 25.484375 
L 43.21875 27.484375 
z
M 52.203125 31.203125 
L 52.203125 0 
L 43.21875 0 
L 43.21875 8.296875 
Q 40.140625 3.328125 35.546875 0.953125 
Q 30.953125 -1.421875 24.3125 -1.421875 
Q 15.921875 -1.421875 10.953125 3.296875 
Q 6 8.015625 6 15.921875 
Q 6 25.140625 12.171875 29.828125 
Q 18.359375 34.515625 30.609375 34.515625 
L 43.21875 34.515625 
L 43.21875 35.40625 
Q 43.21875 41.609375 39.140625 45 
Q 35.0625 48.390625 27.6875 48.390625 
Q 23 48.390625 18.546875 47.265625 
Q 14.109375 46.140625 10.015625 43.890625 
L 10.015625 52.203125 
Q 14.9375 54.109375 19.578125 55.046875 
Q 24.21875 56 28.609375 56 
Q 40.484375 56 46.34375 49.84375 
Q 52.203125 43.703125 52.203125 31.203125 
z
" id="DejaVuSans-61"/>
      <path d="M 52 44.1875 
Q 55.375 50.25 60.0625 53.125 
Q 64.75 56 71.09375 56 
Q 79.640625 56 84.28125 50.015625 
Q 88.921875 44.046875 88.921875 33.015625 
L 88.921875 0 
L 79.890625 0 
L 79.890625 32.71875 
Q 79.890625 40.578125 77.09375 44.375 
Q 74.3125 48.1875 68.609375 48.1875 
Q 61.625 48.1875 57.5625 43.546875 
Q 53.515625 38.921875 53.515625 30.90625 
L 53.515625 0 
L 44.484375 0 
L 44.484375 32.71875 
Q 44.484375 40.625 41.703125 44.40625 
Q 38.921875 48.1875 33.109375 48.1875 
Q 26.21875 48.1875 22.15625 43.53125 
Q 18.109375 38.875 18.109375 30.90625 
L 18.109375 0 
L 9.078125 0 
L 9.078125 54.6875 
L 18.109375 54.6875 
L 18.109375 46.1875 
Q 21.1875 51.21875 25.484375 53.609375 
Q 29.78125 56 35.6875 56 
Q 41.65625 56 45.828125 52.96875 
Q 50 49.953125 52 44.1875 
z
" id="DejaVuSans-6d"/>
      <path d="M 48.6875 27.296875 
Q 48.6875 37.203125 44.609375 42.84375 
Q 40.53125 48.484375 33.40625 48.484375 
Q 26.265625 48.484375 22.1875 42.84375 
Q 18.109375 37.203125 18.109375 27.296875 
Q 18.109375 17.390625 22.1875 11.75 
Q 26.265625 6.109375 33.40625 6.109375 
Q 40.53125 6.109375 44.609375 11.75 
Q 48.6875 17.390625 48.6875 27.296875 
z
M 18.109375 46.390625 
Q 20.953125 51.265625 25.265625 53.625 
Q 29.59375 56 35.59375 56 
Q 45.5625 56 51.78125 48.09375 
Q 58.015625 40.1875 58.015625 27.296875 
Q 58.015625 14.40625 51.78125 6.484375 
Q 45.5625 -1.421875 35.59375 -1.421875 
Q 29.59375 -1.421875 25.265625 0.953125 
Q 20.953125 3.328125 18.109375 8.203125 
L 18.109375 0 
L 9.078125 0 
L 9.078125 75.984375 
L 18.109375 75.984375 
z
" id="DejaVuSans-62"/>
      <path d="M 45.40625 46.390625 
L 45.40625 75.984375 
L 54.390625 75.984375 
L 54.390625 0 
L 45.40625 0 
L 45.40625 8.203125 
Q 42.578125 3.328125 38.25 0.953125 
Q 33.9375 -1.421875 27.875 -1.421875 
Q 17.96875 -1.421875 11.734375 6.484375 
Q 5.515625 14.40625 5.515625 27.296875 
Q 5.515625 40.1875 11.734375 48.09375 
Q 17.96875 56 27.875 56 
Q 33.9375 56 38.25 53.625 
Q 42.578125 51.265625 45.40625 46.390625 
z
M 14.796875 27.296875 
Q 14.796875 17.390625 18.875 11.75 
Q 22.953125 6.109375 30.078125 6.109375 
Q 37.203125 6.109375 41.296875 11.75 
Q 45.40625 17.390625 45.40625 27.296875 
Q 45.40625 37.203125 41.296875 42.84375 
Q 37.203125 48.484375 30.078125 48.484375 
Q 22.953125 48.484375 18.875 42.84375 
Q 14.796875 37.203125 14.796875 27.296875 
z
" id="DejaVuSans-64"/>
     </defs>
     <g transform="translate(202.664062 217.276563)scale(0.1 -0.1)">
      <use xlink:href="#DejaVuSans-6c"/>
      <use x="27.783203" xlink:href="#DejaVuSans-61"/>
      <use x="89.0625" xlink:href="#DejaVuSans-6d"/>
      <use x="186.474609" xlink:href="#DejaVuSans-62"/>
      <use x="249.951172" xlink:href="#DejaVuSans-64"/>
      <use x="313.427734" xlink:href="#DejaVuSans-61"/>
     </g>
    </g>
   </g>
   <g id="matplotlib.axis_2">
    <g id="ytick_1">
     <g id="line2d_6">
      <defs>
       <path d="M 0 0 
L -3.5 0 
" id="m63fa54e5a9" style="stroke:#000000;stroke-width:0.8;"/>
      </defs>
      <g>
       <use style="stroke:#000000;stroke-width:0.8;" x="54" xlink:href="#m63fa54e5a9" y="183.372801"/>
      </g>
     </g>
     <g id="text_7">
      <!-- 0 -->
      <g transform="translate(40.6375 187.17202)scale(0.1 -0.1)">
       <use xlink:href="#DejaVuSans-30"/>
      </g>
     </g>
    </g>
    <g id="ytick_2">
     <g id="line2d_7">
      <g>
       <use style="stroke:#000000;stroke-width:0.8;" x="54" xlink:href="#m63fa54e5a9" y="143.652931"/>
      </g>
     </g>
     <g id="text_8">
      <!-- 1 -->
      <g transform="translate(40.6375 147.45215)scale(0.1 -0.1)">
       <use xlink:href="#DejaVuSans-31"/>
      </g>
     </g>
    </g>
    <g id="ytick_3">
     <g id="line2d_8">
      <g>
       <use style="stroke:#000000;stroke-width:0.8;" x="54" xlink:href="#m63fa54e5a9" y="103.933061"/>
      </g>
     </g>
     <g id="text_9">
      <!-- 2 -->
      <g transform="translate(40.6375 107.73228)scale(0.1 -0.1)">
       <use xlink:href="#DejaVuSans-32"/>
      </g>
     </g>
    </g>
    <g id="ytick_4">
     <g id="line2d_9">
      <g>
       <use style="stroke:#000000;stroke-width:0.8;" x="54" xlink:href="#m63fa54e5a9" y="64.213191"/>
      </g>
     </g>
     <g id="text_10">
      <!-- 3 -->
      <defs>
       <path d="M 40.578125 39.3125 
Q 47.65625 37.796875 51.625 33 
Q 55.609375 28.21875 55.609375 21.1875 
Q 55.609375 10.40625 48.1875 4.484375 
Q 40.765625 -1.421875 27.09375 -1.421875 
Q 22.515625 -1.421875 17.65625 -0.515625 
Q 12.796875 0.390625 7.625 2.203125 
L 7.625 11.71875 
Q 11.71875 9.328125 16.59375 8.109375 
Q 21.484375 6.890625 26.8125 6.890625 
Q 36.078125 6.890625 40.9375 10.546875 
Q 45.796875 14.203125 45.796875 21.1875 
Q 45.796875 27.640625 41.28125 31.265625 
Q 36.765625 34.90625 28.71875 34.90625 
L 20.21875 34.90625 
L 20.21875 43.015625 
L 29.109375 43.015625 
Q 36.375 43.015625 40.234375 45.921875 
Q 44.09375 48.828125 44.09375 54.296875 
Q 44.09375 59.90625 40.109375 62.90625 
Q 36.140625 65.921875 28.71875 65.921875 
Q 24.65625 65.921875 20.015625 65.03125 
Q 15.375 64.15625 9.8125 62.3125 
L 9.8125 71.09375 
Q 15.4375 72.65625 20.34375 73.4375 
Q 25.25 74.21875 29.59375 74.21875 
Q 40.828125 74.21875 47.359375 69.109375 
Q 53.90625 64.015625 53.90625 55.328125 
Q 53.90625 49.265625 50.4375 45.09375 
Q 46.96875 40.921875 40.578125 39.3125 
z
" id="DejaVuSans-33"/>
      </defs>
      <g transform="translate(40.6375 68.01241)scale(0.1 -0.1)">
       <use xlink:href="#DejaVuSans-33"/>
      </g>
     </g>
    </g>
    <g id="text_11">
     <!-- ||x|| -->
     <defs>
      <path d="M 21 76.421875 
L 21 -23.578125 
L 12.703125 -23.578125 
L 12.703125 76.421875 
z
" id="DejaVuSans-7c"/>
      <path d="M 54.890625 54.6875 
L 35.109375 28.078125 
L 55.90625 0 
L 45.3125 0 
L 29.390625 21.484375 
L 13.484375 0 
L 2.875 0 
L 24.125 28.609375 
L 4.6875 54.6875 
L 15.28125 54.6875 
L 29.78125 35.203125 
L 44.28125 54.6875 
z
" id="DejaVuSans-78"/>
     </defs>
     <g transform="translate(34.279688 117.156875)rotate(-90)scale(0.1 -0.1)">
      <use xlink:href="#DejaVuSans-7c"/>
      <use x="33.691406" xlink:href="#DejaVuSans-7c"/>
      <use x="67.382812" xlink:href="#DejaVuSans-78"/>
      <use x="126.5625" xlink:href="#DejaVuSans-7c"/>
      <use x="160.253906" xlink:href="#DejaVuSans-7c"/>
     </g>
    </g>
   </g>
   <g id="patch_3">
    <path d="M 54 189 
L 54 25.92 
" style="fill:none;stroke:#000000;stroke-linecap:square;stroke-linejoin:miter;stroke-width:0.8;"/>
   </g>
   <g id="patch_4">
    <path d="M 388.8 189 
L 388.8 25.92 
" style="fill:none;stroke:#000000;stroke-linecap:square;stroke-linejoin:miter;stroke-width:0.8;"/>
   </g>
   <g id="patch_5">
    <path d="M 54 189 
L 388.8 189 
" style="fill:none;stroke:#000000;stroke-linecap:square;stroke-linejoin:miter;stroke-width:0.8;"/>
   </g>
   <g id="patch_6">
    <path d="M 54 25.92 
L 388.8 25.92 
" style="fill:none;stroke:#000000;stroke-linecap:square;stroke-linejoin:miter;stroke-width:0.8;"/>
   </g>
  </g>
 </g>
 <defs>
  <clipPath id="pb3a50ea428">
   <rect height="163.08" width="334.8" x="54" y="25.92"/>
  </clipPath>
 </defs>
</svg>
