<?xml version="1.0" encoding="utf-8" standalone="no"?>
<!DOCTYPE svg PUBLIC "-//W3C//DTD SVG 1.1//EN"
  "http://www.w3.org/Graphics/SVG/1.1/DTD/svg11.dtd">
<!-- Created with matplotlib (http://matplotlib.org/) -->
<svg height="216pt" version="1.1" viewBox="0 0 432 216" width="432pt" xmlns="http://www.w3.org/2000/svg" xmlns:xlink="http://www.w3.org/1999/xlink">
 <defs>
  <style type="text/css">
*{stroke-linecap:butt;stroke-linejoin:round;}
  </style>
 </defs>
 <g id="figure_1">
  <g id="patch_1">
   <path d="M 0 216 
L 432 216 
L 432 0 
L 0 0 
z
" style="fill:#ffffff;"/>
  </g>
  <g id="axes_1">
   <g id="patch_2">
    <path d="M 54 189 
L 388.8 189 
L 388.8 25.92 
L 54 25.92 
z
" style="fill:#ffffff;"/>
   </g>
   <g id="PathCollection_1">
    <defs>
     <path d="M 0 3 
C 0.795609 3 1.55874 2.683901 2.12132 2.12132 
C 2.683901 1.55874 3 0.795609 3 0 
C 3 -0.795609 2.683901 -1.55874 2.12132 -2.12132 
C 1.55874 -2.683901 0.795609 -3 0 -3 
C -0.795609 -3 -1.55874 -2.683901 -2.12132 -2.12132 
C -2.683901 -1.55874 -3 -0.795609 -3 0 
C -3 0.795609 -2.683901 1.55874 -2.12132 2.12132 
C -1.55874 2.683901 -0.795609 3 0 3 
z
" id="md73c0e7ac5" style="stroke:#1f77b4;"/>
    </defs>
    <g clip-path="url(#p43d28255f9)">
     <use style="fill:#1f77b4;stroke:#1f77b4;" x="69.345743" xlink:href="#md73c0e7ac5" y="179.773311"/>
     <use style="fill:#1f77b4;stroke:#1f77b4;" x="69.359979" xlink:href="#md73c0e7ac5" y="179.772825"/>
     <use style="fill:#1f77b4;stroke:#1f77b4;" x="69.375638" xlink:href="#md73c0e7ac5" y="179.77229"/>
     <use style="fill:#1f77b4;stroke:#1f77b4;" x="69.392863" xlink:href="#md73c0e7ac5" y="179.771702"/>
     <use style="fill:#1f77b4;stroke:#1f77b4;" x="69.411811" xlink:href="#md73c0e7ac5" y="179.771055"/>
     <use style="fill:#1f77b4;stroke:#1f77b4;" x="69.432654" xlink:href="#md73c0e7ac5" y="179.770343"/>
     <use style="fill:#1f77b4;stroke:#1f77b4;" x="69.455581" xlink:href="#md73c0e7ac5" y="179.769559"/>
     <use style="fill:#1f77b4;stroke:#1f77b4;" x="69.480801" xlink:href="#md73c0e7ac5" y="179.768697"/>
     <use style="fill:#1f77b4;stroke:#1f77b4;" x="69.508542" xlink:href="#md73c0e7ac5" y="179.767748"/>
     <use style="fill:#1f77b4;stroke:#1f77b4;" x="69.539058" xlink:href="#md73c0e7ac5" y="179.766704"/>
     <use style="fill:#1f77b4;stroke:#1f77b4;" x="69.572625" xlink:href="#md73c0e7ac5" y="179.765555"/>
     <use style="fill:#1f77b4;stroke:#1f77b4;" x="69.609549" xlink:href="#md73c0e7ac5" y="179.764291"/>
     <use style="fill:#1f77b4;stroke:#1f77b4;" x="69.650166" xlink:href="#md73c0e7ac5" y="179.762899"/>
     <use style="fill:#1f77b4;stroke:#1f77b4;" x="69.694844" xlink:href="#md73c0e7ac5" y="179.761367"/>
     <use style="fill:#1f77b4;stroke:#1f77b4;" x="69.74399" xlink:href="#md73c0e7ac5" y="179.759681"/>
     <use style="fill:#1f77b4;stroke:#1f77b4;" x="69.79805" xlink:href="#md73c0e7ac5" y="179.757825"/>
     <use style="fill:#1f77b4;stroke:#1f77b4;" x="69.857517" xlink:href="#md73c0e7ac5" y="179.755782"/>
     <use style="fill:#1f77b4;stroke:#1f77b4;" x="69.92293" xlink:href="#md73c0e7ac5" y="179.753532"/>
     <use style="fill:#1f77b4;stroke:#1f77b4;" x="69.994884" xlink:href="#md73c0e7ac5" y="179.751055"/>
     <use style="fill:#1f77b4;stroke:#1f77b4;" x="70.074034" xlink:href="#md73c0e7ac5" y="179.748327"/>
     <use style="fill:#1f77b4;stroke:#1f77b4;" x="70.161099" xlink:href="#md73c0e7ac5" y="179.745323"/>
     <use style="fill:#1f77b4;stroke:#1f77b4;" x="70.256871" xlink:href="#md73c0e7ac5" y="179.742014"/>
     <use style="fill:#1f77b4;stroke:#1f77b4;" x="70.362219" xlink:href="#md73c0e7ac5" y="179.738368"/>
     <use style="fill:#1f77b4;stroke:#1f77b4;" x="70.478102" xlink:href="#md73c0e7ac5" y="179.734352"/>
     <use style="fill:#1f77b4;stroke:#1f77b4;" x="70.605574" xlink:href="#md73c0e7ac5" y="179.729927"/>
     <use style="fill:#1f77b4;stroke:#1f77b4;" x="70.745793" xlink:href="#md73c0e7ac5" y="179.725049"/>
     <use style="fill:#1f77b4;stroke:#1f77b4;" x="70.900034" xlink:href="#md73c0e7ac5" y="179.719672"/>
     <use style="fill:#1f77b4;stroke:#1f77b4;" x="71.069698" xlink:href="#md73c0e7ac5" y="179.713744"/>
     <use style="fill:#1f77b4;stroke:#1f77b4;" x="71.256329" xlink:href="#md73c0e7ac5" y="179.707206"/>
     <use style="fill:#1f77b4;stroke:#1f77b4;" x="71.461624" xlink:href="#md73c0e7ac5" y="179.699993"/>
     <use style="fill:#1f77b4;stroke:#1f77b4;" x="71.687447" xlink:href="#md73c0e7ac5" y="179.692034"/>
     <use style="fill:#1f77b4;stroke:#1f77b4;" x="71.935853" xlink:href="#md73c0e7ac5" y="179.683249"/>
     <use style="fill:#1f77b4;stroke:#1f77b4;" x="72.2091" xlink:href="#md73c0e7ac5" y="179.673548"/>
     <use style="fill:#1f77b4;stroke:#1f77b4;" x="72.509671" xlink:href="#md73c0e7ac5" y="179.662832"/>
     <use style="fill:#1f77b4;stroke:#1f77b4;" x="72.840298" xlink:href="#md73c0e7ac5" y="179.65099"/>
     <use style="fill:#1f77b4;stroke:#1f77b4;" x="73.203989" xlink:href="#md73c0e7ac5" y="179.637896"/>
     <use style="fill:#1f77b4;stroke:#1f77b4;" x="73.604048" xlink:href="#md73c0e7ac5" y="179.623411"/>
     <use style="fill:#1f77b4;stroke:#1f77b4;" x="74.044114" xlink:href="#md73c0e7ac5" y="179.607378"/>
     <use style="fill:#1f77b4;stroke:#1f77b4;" x="74.528185" xlink:href="#md73c0e7ac5" y="179.58962"/>
     <use style="fill:#1f77b4;stroke:#1f77b4;" x="75.060663" xlink:href="#md73c0e7ac5" y="179.569937"/>
     <use style="fill:#1f77b4;stroke:#1f77b4;" x="75.646389" xlink:href="#md73c0e7ac5" y="179.548103"/>
     <use style="fill:#1f77b4;stroke:#1f77b4;" x="76.290687" xlink:href="#md73c0e7ac5" y="179.523862"/>
     <use style="fill:#1f77b4;stroke:#1f77b4;" x="76.999414" xlink:href="#md73c0e7ac5" y="179.496921"/>
     <use style="fill:#1f77b4;stroke:#1f77b4;" x="77.779012" xlink:href="#md73c0e7ac5" y="179.466948"/>
     <use style="fill:#1f77b4;stroke:#1f77b4;" x="78.63657" xlink:href="#md73c0e7ac5" y="179.433561"/>
     <use style="fill:#1f77b4;stroke:#1f77b4;" x="79.579882" xlink:href="#md73c0e7ac5" y="179.396321"/>
     <use style="fill:#1f77b4;stroke:#1f77b4;" x="80.617524" xlink:href="#md73c0e7ac5" y="179.354721"/>
     <use style="fill:#1f77b4;stroke:#1f77b4;" x="81.758928" xlink:href="#md73c0e7ac5" y="179.308172"/>
     <use style="fill:#1f77b4;stroke:#1f77b4;" x="83.014471" xlink:href="#md73c0e7ac5" y="179.255988"/>
     <use style="fill:#1f77b4;stroke:#1f77b4;" x="84.395564" xlink:href="#md73c0e7ac5" y="179.197361"/>
     <use style="fill:#1f77b4;stroke:#1f77b4;" x="85.914763" xlink:href="#md73c0e7ac5" y="179.131342"/>
     <use style="fill:#1f77b4;stroke:#1f77b4;" x="87.585876" xlink:href="#md73c0e7ac5" y="179.056799"/>
     <use style="fill:#1f77b4;stroke:#1f77b4;" x="89.424095" xlink:href="#md73c0e7ac5" y="178.972377"/>
     <use style="fill:#1f77b4;stroke:#1f77b4;" x="91.446127" xlink:href="#md73c0e7ac5" y="178.87644"/>
     <use style="fill:#1f77b4;stroke:#1f77b4;" x="93.67035" xlink:href="#md73c0e7ac5" y="178.766992"/>
     <use style="fill:#1f77b4;stroke:#1f77b4;" x="96.116982" xlink:href="#md73c0e7ac5" y="178.641576"/>
     <use style="fill:#1f77b4;stroke:#1f77b4;" x="98.808256" xlink:href="#md73c0e7ac5" y="178.497129"/>
     <use style="fill:#1f77b4;stroke:#1f77b4;" x="101.76863" xlink:href="#md73c0e7ac5" y="178.329785"/>
     <use style="fill:#1f77b4;stroke:#1f77b4;" x="105.025004" xlink:href="#md73c0e7ac5" y="178.134592"/>
     <use style="fill:#1f77b4;stroke:#1f77b4;" x="108.606961" xlink:href="#md73c0e7ac5" y="177.9051"/>
     <use style="fill:#1f77b4;stroke:#1f77b4;" x="112.547037" xlink:href="#md73c0e7ac5" y="177.632744"/>
     <use style="fill:#1f77b4;stroke:#1f77b4;" x="116.881007" xlink:href="#md73c0e7ac5" y="177.305903"/>
     <use style="fill:#1f77b4;stroke:#1f77b4;" x="121.648201" xlink:href="#md73c0e7ac5" y="176.908387"/>
     <use style="fill:#1f77b4;stroke:#1f77b4;" x="126.891841" xlink:href="#md73c0e7ac5" y="176.416936"/>
     <use style="fill:#1f77b4;stroke:#1f77b4;" x="132.659396" xlink:href="#md73c0e7ac5" y="175.796872"/>
     <use style="fill:#1f77b4;stroke:#1f77b4;" x="139.002921" xlink:href="#md73c0e7ac5" y="174.994018"/>
     <use style="fill:#1f77b4;stroke:#1f77b4;" x="145.979329" xlink:href="#md73c0e7ac5" y="173.918602"/>
     <use style="fill:#1f77b4;stroke:#1f77b4;" x="153.650341" xlink:href="#md73c0e7ac5" y="172.40962"/>
     <use style="fill:#1f77b4;stroke:#1f77b4;" x="162.081257" xlink:href="#md73c0e7ac5" y="170.14406"/>
     <use style="fill:#1f77b4;stroke:#1f77b4;" x="171.334089" xlink:href="#md73c0e7ac5" y="166.347628"/>
     <use style="fill:#1f77b4;stroke:#1f77b4;" x="181.417593" xlink:href="#md73c0e7ac5" y="158.354711"/>
     <use style="fill:#1f77b4;stroke:#1f77b4;" x="186.67564" xlink:href="#md73c0e7ac5" y="147.947129"/>
     <use style="fill:#1f77b4;stroke:#1f77b4;" x="187.77564" xlink:href="#md73c0e7ac5" y="142.191925"/>
     <use style="fill:#1f77b4;stroke:#1f77b4;" x="187.936693" xlink:href="#md73c0e7ac5" y="132.54265"/>
     <use style="fill:#1f77b4;stroke:#1f77b4;" x="186.309942" xlink:href="#md73c0e7ac5" y="121.430078"/>
     <use style="fill:#1f77b4;stroke:#1f77b4;" x="183.610665" xlink:href="#md73c0e7ac5" y="111.410898"/>
     <use style="fill:#1f77b4;stroke:#1f77b4;" x="180.253053" xlink:href="#md73c0e7ac5" y="102.121868"/>
     <use style="fill:#1f77b4;stroke:#1f77b4;" x="176.344311" xlink:href="#md73c0e7ac5" y="93.192504"/>
     <use style="fill:#1f77b4;stroke:#1f77b4;" x="171.902354" xlink:href="#md73c0e7ac5" y="84.401548"/>
     <use style="fill:#1f77b4;stroke:#1f77b4;" x="166.911617" xlink:href="#md73c0e7ac5" y="75.606224"/>
     <use style="fill:#1f77b4;stroke:#1f77b4;" x="161.339731" xlink:href="#md73c0e7ac5" y="66.702247"/>
     <use style="fill:#1f77b4;stroke:#1f77b4;" x="155.14382" xlink:href="#md73c0e7ac5" y="57.600159"/>
     <use style="fill:#1f77b4;stroke:#1f77b4;" x="148.274116" xlink:href="#md73c0e7ac5" y="48.198599"/>
     <use style="fill:#1f77b4;stroke:#1f77b4;" x="140.684311" xlink:href="#md73c0e7ac5" y="38.257587"/>
     <use style="fill:#1f77b4;stroke:#1f77b4;" x="138.608069" xlink:href="#md73c0e7ac5" y="35.385367"/>
     <use style="fill:#1f77b4;stroke:#1f77b4;" x="138.327941" xlink:href="#md73c0e7ac5" y="34.926365"/>
     <use style="fill:#1f77b4;stroke:#1f77b4;" x="138.179326" xlink:href="#md73c0e7ac5" y="34.618801"/>
     <use style="fill:#1f77b4;stroke:#1f77b4;" x="138.146869" xlink:href="#md73c0e7ac5" y="34.466938"/>
     <use style="fill:#1f77b4;stroke:#1f77b4;" x="138.149106" xlink:href="#md73c0e7ac5" y="34.449856"/>
     <use style="fill:#1f77b4;stroke:#1f77b4;" x="138.153523" xlink:href="#md73c0e7ac5" y="34.435306"/>
     <use style="fill:#1f77b4;stroke:#1f77b4;" x="138.159369" xlink:href="#md73c0e7ac5" y="34.424261"/>
     <use style="fill:#1f77b4;stroke:#1f77b4;" x="138.166231" xlink:href="#md73c0e7ac5" y="34.415897"/>
     <use style="fill:#1f77b4;stroke:#1f77b4;" x="138.173988" xlink:href="#md73c0e7ac5" y="34.409523"/>
     <use style="fill:#1f77b4;stroke:#1f77b4;" x="138.18263" xlink:href="#md73c0e7ac5" y="34.404738"/>
     <use style="fill:#1f77b4;stroke:#1f77b4;" x="138.192199" xlink:href="#md73c0e7ac5" y="34.401318"/>
     <use style="fill:#1f77b4;stroke:#1f77b4;" x="138.202759" xlink:href="#md73c0e7ac5" y="34.399148"/>
     <use style="fill:#1f77b4;stroke:#1f77b4;" x="138.214393" xlink:href="#md73c0e7ac5" y="34.39818"/>
     <use style="fill:#1f77b4;stroke:#1f77b4;" x="138.227196" xlink:href="#md73c0e7ac5" y="34.398414"/>
     <use style="fill:#1f77b4;stroke:#1f77b4;" x="138.241279" xlink:href="#md73c0e7ac5" y="34.399883"/>
     <use style="fill:#1f77b4;stroke:#1f77b4;" x="138.256763" xlink:href="#md73c0e7ac5" y="34.402647"/>
     <use style="fill:#1f77b4;stroke:#1f77b4;" x="138.273783" xlink:href="#md73c0e7ac5" y="34.406791"/>
     <use style="fill:#1f77b4;stroke:#1f77b4;" x="138.292489" xlink:href="#md73c0e7ac5" y="34.412422"/>
     <use style="fill:#1f77b4;stroke:#1f77b4;" x="138.313047" xlink:href="#md73c0e7ac5" y="34.419668"/>
     <use style="fill:#1f77b4;stroke:#1f77b4;" x="138.335638" xlink:href="#md73c0e7ac5" y="34.428679"/>
     <use style="fill:#1f77b4;stroke:#1f77b4;" x="138.360464" xlink:href="#md73c0e7ac5" y="34.439626"/>
     <use style="fill:#1f77b4;stroke:#1f77b4;" x="138.387744" xlink:href="#md73c0e7ac5" y="34.452704"/>
     <use style="fill:#1f77b4;stroke:#1f77b4;" x="138.417723" xlink:href="#md73c0e7ac5" y="34.468133"/>
     <use style="fill:#1f77b4;stroke:#1f77b4;" x="138.450666" xlink:href="#md73c0e7ac5" y="34.486159"/>
     <use style="fill:#1f77b4;stroke:#1f77b4;" x="138.486869" xlink:href="#md73c0e7ac5" y="34.507056"/>
     <use style="fill:#1f77b4;stroke:#1f77b4;" x="138.526654" xlink:href="#md73c0e7ac5" y="34.531132"/>
     <use style="fill:#1f77b4;stroke:#1f77b4;" x="138.570376" xlink:href="#md73c0e7ac5" y="34.558726"/>
     <use style="fill:#1f77b4;stroke:#1f77b4;" x="138.618429" xlink:href="#md73c0e7ac5" y="34.590197"/>
     <use style="fill:#1f77b4;stroke:#1f77b4;" x="138.671239" xlink:href="#md73c0e7ac5" y="34.62601"/>
     <use style="fill:#1f77b4;stroke:#1f77b4;" x="138.729281" xlink:href="#md73c0e7ac5" y="34.666607"/>
     <use style="fill:#1f77b4;stroke:#1f77b4;" x="138.793075" xlink:href="#md73c0e7ac5" y="34.712504"/>
     <use style="fill:#1f77b4;stroke:#1f77b4;" x="138.863192" xlink:href="#md73c0e7ac5" y="34.764273"/>
     <use style="fill:#1f77b4;stroke:#1f77b4;" x="138.940262" xlink:href="#md73c0e7ac5" y="34.822544"/>
     <use style="fill:#1f77b4;stroke:#1f77b4;" x="139.024977" xlink:href="#md73c0e7ac5" y="34.888019"/>
     <use style="fill:#1f77b4;stroke:#1f77b4;" x="139.118096" xlink:href="#md73c0e7ac5" y="34.961468"/>
     <use style="fill:#1f77b4;stroke:#1f77b4;" x="139.220456" xlink:href="#md73c0e7ac5" y="35.043748"/>
     <use style="fill:#1f77b4;stroke:#1f77b4;" x="139.332977" xlink:href="#md73c0e7ac5" y="35.135793"/>
     <use style="fill:#1f77b4;stroke:#1f77b4;" x="139.45667" xlink:href="#md73c0e7ac5" y="35.238682"/>
     <use style="fill:#1f77b4;stroke:#1f77b4;" x="139.592647" xlink:href="#md73c0e7ac5" y="35.353538"/>
     <use style="fill:#1f77b4;stroke:#1f77b4;" x="139.742133" xlink:href="#md73c0e7ac5" y="35.481641"/>
     <use style="fill:#1f77b4;stroke:#1f77b4;" x="139.90647" xlink:href="#md73c0e7ac5" y="35.624428"/>
     <use style="fill:#1f77b4;stroke:#1f77b4;" x="140.087139" xlink:href="#md73c0e7ac5" y="35.783431"/>
     <use style="fill:#1f77b4;stroke:#1f77b4;" x="140.285765" xlink:href="#md73c0e7ac5" y="35.96039"/>
     <use style="fill:#1f77b4;stroke:#1f77b4;" x="140.504138" xlink:href="#md73c0e7ac5" y="36.157219"/>
     <use style="fill:#1f77b4;stroke:#1f77b4;" x="140.744222" xlink:href="#md73c0e7ac5" y="36.376021"/>
     <use style="fill:#1f77b4;stroke:#1f77b4;" x="141.008181" xlink:href="#md73c0e7ac5" y="36.61915"/>
     <use style="fill:#1f77b4;stroke:#1f77b4;" x="141.29839" xlink:href="#md73c0e7ac5" y="36.889202"/>
     <use style="fill:#1f77b4;stroke:#1f77b4;" x="141.617464" xlink:href="#md73c0e7ac5" y="37.189032"/>
     <use style="fill:#1f77b4;stroke:#1f77b4;" x="141.968276" xlink:href="#md73c0e7ac5" y="37.521823"/>
     <use style="fill:#1f77b4;stroke:#1f77b4;" x="142.353985" xlink:href="#md73c0e7ac5" y="37.891119"/>
     <use style="fill:#1f77b4;stroke:#1f77b4;" x="142.778064" xlink:href="#md73c0e7ac5" y="38.300828"/>
     <use style="fill:#1f77b4;stroke:#1f77b4;" x="143.244329" xlink:href="#md73c0e7ac5" y="38.75529"/>
     <use style="fill:#1f77b4;stroke:#1f77b4;" x="143.756976" xlink:href="#md73c0e7ac5" y="39.259353"/>
     <use style="fill:#1f77b4;stroke:#1f77b4;" x="144.320616" xlink:href="#md73c0e7ac5" y="39.818396"/>
     <use style="fill:#1f77b4;stroke:#1f77b4;" x="144.940318" xlink:href="#md73c0e7ac5" y="40.438399"/>
     <use style="fill:#1f77b4;stroke:#1f77b4;" x="145.621648" xlink:href="#md73c0e7ac5" y="41.126047"/>
     <use style="fill:#1f77b4;stroke:#1f77b4;" x="146.370724" xlink:href="#md73c0e7ac5" y="41.888806"/>
     <use style="fill:#1f77b4;stroke:#1f77b4;" x="147.194267" xlink:href="#md73c0e7ac5" y="42.735016"/>
     <use style="fill:#1f77b4;stroke:#1f77b4;" x="148.099655" xlink:href="#md73c0e7ac5" y="43.674031"/>
     <use style="fill:#1f77b4;stroke:#1f77b4;" x="149.094993" xlink:href="#md73c0e7ac5" y="44.716359"/>
     <use style="fill:#1f77b4;stroke:#1f77b4;" x="150.189175" xlink:href="#md73c0e7ac5" y="45.873819"/>
     <use style="fill:#1f77b4;stroke:#1f77b4;" x="151.391964" xlink:href="#md73c0e7ac5" y="47.159737"/>
     <use style="fill:#1f77b4;stroke:#1f77b4;" x="152.714064" xlink:href="#md73c0e7ac5" y="48.589201"/>
     <use style="fill:#1f77b4;stroke:#1f77b4;" x="154.167218" xlink:href="#md73c0e7ac5" y="50.179333"/>
     <use style="fill:#1f77b4;stroke:#1f77b4;" x="155.764287" xlink:href="#md73c0e7ac5" y="51.949656"/>
     <use style="fill:#1f77b4;stroke:#1f77b4;" x="157.519356" xlink:href="#md73c0e7ac5" y="53.922488"/>
     <use style="fill:#1f77b4;stroke:#1f77b4;" x="159.447835" xlink:href="#md73c0e7ac5" y="56.123491"/>
     <use style="fill:#1f77b4;stroke:#1f77b4;" x="161.56656" xlink:href="#md73c0e7ac5" y="58.582333"/>
     <use style="fill:#1f77b4;stroke:#1f77b4;" x="163.893902" xlink:href="#md73c0e7ac5" y="61.333474"/>
     <use style="fill:#1f77b4;stroke:#1f77b4;" x="166.449868" xlink:href="#md73c0e7ac5" y="64.417299"/>
     <use style="fill:#1f77b4;stroke:#1f77b4;" x="169.256193" xlink:href="#md73c0e7ac5" y="67.881362"/>
     <use style="fill:#1f77b4;stroke:#1f77b4;" x="172.336411" xlink:href="#md73c0e7ac5" y="71.782203"/>
     <use style="fill:#1f77b4;stroke:#1f77b4;" x="175.715895" xlink:href="#md73c0e7ac5" y="76.187564"/>
     <use style="fill:#1f77b4;stroke:#1f77b4;" x="179.42185" xlink:href="#md73c0e7ac5" y="81.179204"/>
     <use style="fill:#1f77b4;stroke:#1f77b4;" x="183.483239" xlink:href="#md73c0e7ac5" y="86.856322"/>
     <use style="fill:#1f77b4;stroke:#1f77b4;" x="187.93068" xlink:href="#md73c0e7ac5" y="93.339024"/>
     <use style="fill:#1f77b4;stroke:#1f77b4;" x="192.796465" xlink:href="#md73c0e7ac5" y="100.769782"/>
     <use style="fill:#1f77b4;stroke:#1f77b4;" x="198.115432" xlink:href="#md73c0e7ac5" y="109.305594"/>
     <use style="fill:#1f77b4;stroke:#1f77b4;" x="203.929199" xlink:href="#md73c0e7ac5" y="119.077624"/>
     <use style="fill:#1f77b4;stroke:#1f77b4;" x="210.30143" xlink:href="#md73c0e7ac5" y="130.052491"/>
     <use style="fill:#1f77b4;stroke:#1f77b4;" x="217.357141" xlink:href="#md73c0e7ac5" y="141.680288"/>
     <use style="fill:#1f77b4;stroke:#1f77b4;" x="225.312789" xlink:href="#md73c0e7ac5" y="152.518648"/>
     <use style="fill:#1f77b4;stroke:#1f77b4;" x="234.348533" xlink:href="#md73c0e7ac5" y="160.983815"/>
     <use style="fill:#1f77b4;stroke:#1f77b4;" x="244.483562" xlink:href="#md73c0e7ac5" y="166.837644"/>
     <use style="fill:#1f77b4;stroke:#1f77b4;" x="255.718498" xlink:href="#md73c0e7ac5" y="170.800675"/>
     <use style="fill:#1f77b4;stroke:#1f77b4;" x="268.110936" xlink:href="#md73c0e7ac5" y="173.564167"/>
     <use style="fill:#1f77b4;stroke:#1f77b4;" x="281.756572" xlink:href="#md73c0e7ac5" y="175.568258"/>
     <use style="fill:#1f77b4;stroke:#1f77b4;" x="296.772971" xlink:href="#md73c0e7ac5" y="177.074075"/>
     <use style="fill:#1f77b4;stroke:#1f77b4;" x="313.293985" xlink:href="#md73c0e7ac5" y="178.239259"/>
     <use style="fill:#1f77b4;stroke:#1f77b4;" x="331.468627" xlink:href="#md73c0e7ac5" y="179.1627"/>
     <use style="fill:#1f77b4;stroke:#1f77b4;" x="351.461561" xlink:href="#md73c0e7ac5" y="179.908973"/>
     <use style="fill:#1f77b4;stroke:#1f77b4;" x="373.454257" xlink:href="#md73c0e7ac5" y="180.52182"/>
    </g>
   </g>
   <g id="matplotlib.axis_1">
    <g id="xtick_1">
     <g id="line2d_1">
      <defs>
       <path d="M 0 0 
L 0 3.5 
" id="m0375e9d4c9" style="stroke:#000000;stroke-width:0.8;"/>
      </defs>
      <g>
       <use style="stroke:#000000;stroke-width:0.8;" x="67.922161" xlink:href="#m0375e9d4c9" y="189"/>
      </g>
     </g>
     <g id="text_1">
      <!-- 0 -->
      <defs>
       <path d="M 31.78125 66.40625 
Q 24.171875 66.40625 20.328125 58.90625 
Q 16.5 51.421875 16.5 36.375 
Q 16.5 21.390625 20.328125 13.890625 
Q 24.171875 6.390625 31.78125 6.390625 
Q 39.453125 6.390625 43.28125 13.890625 
Q 47.125 21.390625 47.125 36.375 
Q 47.125 51.421875 43.28125 58.90625 
Q 39.453125 66.40625 31.78125 66.40625 
z
M 31.78125 74.21875 
Q 44.046875 74.21875 50.515625 64.515625 
Q 56.984375 54.828125 56.984375 36.375 
Q 56.984375 17.96875 50.515625 8.265625 
Q 44.046875 -1.421875 31.78125 -1.421875 
Q 19.53125 -1.421875 13.0625 8.265625 
Q 6.59375 17.96875 6.59375 36.375 
Q 6.59375 54.828125 13.0625 64.515625 
Q 19.53125 74.21875 31.78125 74.21875 
z
" id="DejaVuSans-30"/>
      </defs>
      <g transform="translate(64.740911 203.598437)scale(0.1 -0.1)">
       <use xlink:href="#DejaVuSans-30"/>
      </g>
     </g>
    </g>
    <g id="xtick_2">
     <g id="line2d_2">
      <g>
       <use style="stroke:#000000;stroke-width:0.8;" x="139.101257" xlink:href="#m0375e9d4c9" y="189"/>
      </g>
     </g>
     <g id="text_2">
      <!-- 5 -->
      <defs>
       <path d="M 10.796875 72.90625 
L 49.515625 72.90625 
L 49.515625 64.59375 
L 19.828125 64.59375 
L 19.828125 46.734375 
Q 21.96875 47.46875 24.109375 47.828125 
Q 26.265625 48.1875 28.421875 48.1875 
Q 40.625 48.1875 47.75 41.5 
Q 54.890625 34.8125 54.890625 23.390625 
Q 54.890625 11.625 47.5625 5.09375 
Q 40.234375 -1.421875 26.90625 -1.421875 
Q 22.3125 -1.421875 17.546875 -0.640625 
Q 12.796875 0.140625 7.71875 1.703125 
L 7.71875 11.625 
Q 12.109375 9.234375 16.796875 8.0625 
Q 21.484375 6.890625 26.703125 6.890625 
Q 35.15625 6.890625 40.078125 11.328125 
Q 45.015625 15.765625 45.015625 23.390625 
Q 45.015625 31 40.078125 35.4375 
Q 35.15625 39.890625 26.703125 39.890625 
Q 22.75 39.890625 18.8125 39.015625 
Q 14.890625 38.140625 10.796875 36.28125 
z
" id="DejaVuSans-35"/>
      </defs>
      <g transform="translate(135.920007 203.598437)scale(0.1 -0.1)">
       <use xlink:href="#DejaVuSans-35"/>
      </g>
     </g>
    </g>
    <g id="xtick_3">
     <g id="line2d_3">
      <g>
       <use style="stroke:#000000;stroke-width:0.8;" x="210.280353" xlink:href="#m0375e9d4c9" y="189"/>
      </g>
     </g>
     <g id="text_3">
      <!-- 10 -->
      <defs>
       <path d="M 12.40625 8.296875 
L 28.515625 8.296875 
L 28.515625 63.921875 
L 10.984375 60.40625 
L 10.984375 69.390625 
L 28.421875 72.90625 
L 38.28125 72.90625 
L 38.28125 8.296875 
L 54.390625 8.296875 
L 54.390625 0 
L 12.40625 0 
z
" id="DejaVuSans-31"/>
      </defs>
      <g transform="translate(203.917853 203.598437)scale(0.1 -0.1)">
       <use xlink:href="#DejaVuSans-31"/>
       <use x="63.623047" xlink:href="#DejaVuSans-30"/>
      </g>
     </g>
    </g>
    <g id="xtick_4">
     <g id="line2d_4">
      <g>
       <use style="stroke:#000000;stroke-width:0.8;" x="281.459449" xlink:href="#m0375e9d4c9" y="189"/>
      </g>
     </g>
     <g id="text_4">
      <!-- 15 -->
      <g transform="translate(275.096949 203.598437)scale(0.1 -0.1)">
       <use xlink:href="#DejaVuSans-31"/>
       <use x="63.623047" xlink:href="#DejaVuSans-35"/>
      </g>
     </g>
    </g>
    <g id="xtick_5">
     <g id="line2d_5">
      <g>
       <use style="stroke:#000000;stroke-width:0.8;" x="352.638545" xlink:href="#m0375e9d4c9" y="189"/>
      </g>
     </g>
     <g id="text_5">
      <!-- 20 -->
      <defs>
       <path d="M 19.1875 8.296875 
L 53.609375 8.296875 
L 53.609375 0 
L 7.328125 0 
L 7.328125 8.296875 
Q 12.9375 14.109375 22.625 23.890625 
Q 32.328125 33.6875 34.8125 36.53125 
Q 39.546875 41.84375 41.421875 45.53125 
Q 43.3125 49.21875 43.3125 52.78125 
Q 43.3125 58.59375 39.234375 62.25 
Q 35.15625 65.921875 28.609375 65.921875 
Q 23.96875 65.921875 18.8125 64.3125 
Q 13.671875 62.703125 7.8125 59.421875 
L 7.8125 69.390625 
Q 13.765625 71.78125 18.9375 73 
Q 24.125 74.21875 28.421875 74.21875 
Q 39.75 74.21875 46.484375 68.546875 
Q 53.21875 62.890625 53.21875 53.421875 
Q 53.21875 48.921875 51.53125 44.890625 
Q 49.859375 40.875 45.40625 35.40625 
Q 44.1875 33.984375 37.640625 27.21875 
Q 31.109375 20.453125 19.1875 8.296875 
z
" id="DejaVuSans-32"/>
      </defs>
      <g transform="translate(346.276045 203.598437)scale(0.1 -0.1)">
       <use xlink:href="#DejaVuSans-32"/>
       <use x="63.623047" xlink:href="#DejaVuSans-30"/>
      </g>
     </g>
    </g>
    <g id="text_6">
     <!-- lambda -->
     <defs>
      <path d="M 9.421875 75.984375 
L 18.40625 75.984375 
L 18.40625 0 
L 9.421875 0 
z
" id="DejaVuSans-6c"/>
      <path d="M 34.28125 27.484375 
Q 23.390625 27.484375 19.1875 25 
Q 14.984375 22.515625 14.984375 16.5 
Q 14.984375 11.71875 18.140625 8.90625 
Q 21.296875 6.109375 26.703125 6.109375 
Q 34.1875 6.109375 38.703125 11.40625 
Q 43.21875 16.703125 43.21875 25.484375 
L 43.21875 27.484375 
z
M 52.203125 31.203125 
L 52.203125 0 
L 43.21875 0 
L 43.21875 8.296875 
Q 40.140625 3.328125 35.546875 0.953125 
Q 30.953125 -1.421875 24.3125 -1.421875 
Q 15.921875 -1.421875 10.953125 3.296875 
Q 6 8.015625 6 15.921875 
Q 6 25.140625 12.171875 29.828125 
Q 18.359375 34.515625 30.609375 34.515625 
L 43.21875 34.515625 
L 43.21875 35.40625 
Q 43.21875 41.609375 39.140625 45 
Q 35.0625 48.390625 27.6875 48.390625 
Q 23 48.390625 18.546875 47.265625 
Q 14.109375 46.140625 10.015625 43.890625 
L 10.015625 52.203125 
Q 14.9375 54.109375 19.578125 55.046875 
Q 24.21875 56 28.609375 56 
Q 40.484375 56 46.34375 49.84375 
Q 52.203125 43.703125 52.203125 31.203125 
z
" id="DejaVuSans-61"/>
      <path d="M 52 44.1875 
Q 55.375 50.25 60.0625 53.125 
Q 64.75 56 71.09375 56 
Q 79.640625 56 84.28125 50.015625 
Q 88.921875 44.046875 88.921875 33.015625 
L 88.921875 0 
L 79.890625 0 
L 79.890625 32.71875 
Q 79.890625 40.578125 77.09375 44.375 
Q 74.3125 48.1875 68.609375 48.1875 
Q 61.625 48.1875 57.5625 43.546875 
Q 53.515625 38.921875 53.515625 30.90625 
L 53.515625 0 
L 44.484375 0 
L 44.484375 32.71875 
Q 44.484375 40.625 41.703125 44.40625 
Q 38.921875 48.1875 33.109375 48.1875 
Q 26.21875 48.1875 22.15625 43.53125 
Q 18.109375 38.875 18.109375 30.90625 
L 18.109375 0 
L 9.078125 0 
L 9.078125 54.6875 
L 18.109375 54.6875 
L 18.109375 46.1875 
Q 21.1875 51.21875 25.484375 53.609375 
Q 29.78125 56 35.6875 56 
Q 41.65625 56 45.828125 52.96875 
Q 50 49.953125 52 44.1875 
z
" id="DejaVuSans-6d"/>
      <path d="M 48.6875 27.296875 
Q 48.6875 37.203125 44.609375 42.84375 
Q 40.53125 48.484375 33.40625 48.484375 
Q 26.265625 48.484375 22.1875 42.84375 
Q 18.109375 37.203125 18.109375 27.296875 
Q 18.109375 17.390625 22.1875 11.75 
Q 26.265625 6.109375 33.40625 6.109375 
Q 40.53125 6.109375 44.609375 11.75 
Q 48.6875 17.390625 48.6875 27.296875 
z
M 18.109375 46.390625 
Q 20.953125 51.265625 25.265625 53.625 
Q 29.59375 56 35.59375 56 
Q 45.5625 56 51.78125 48.09375 
Q 58.015625 40.1875 58.015625 27.296875 
Q 58.015625 14.40625 51.78125 6.484375 
Q 45.5625 -1.421875 35.59375 -1.421875 
Q 29.59375 -1.421875 25.265625 0.953125 
Q 20.953125 3.328125 18.109375 8.203125 
L 18.109375 0 
L 9.078125 0 
L 9.078125 75.984375 
L 18.109375 75.984375 
z
" id="DejaVuSans-62"/>
      <path d="M 45.40625 46.390625 
L 45.40625 75.984375 
L 54.390625 75.984375 
L 54.390625 0 
L 45.40625 0 
L 45.40625 8.203125 
Q 42.578125 3.328125 38.25 0.953125 
Q 33.9375 -1.421875 27.875 -1.421875 
Q 17.96875 -1.421875 11.734375 6.484375 
Q 5.515625 14.40625 5.515625 27.296875 
Q 5.515625 40.1875 11.734375 48.09375 
Q 17.96875 56 27.875 56 
Q 33.9375 56 38.25 53.625 
Q 42.578125 51.265625 45.40625 46.390625 
z
M 14.796875 27.296875 
Q 14.796875 17.390625 18.875 11.75 
Q 22.953125 6.109375 30.078125 6.109375 
Q 37.203125 6.109375 41.296875 11.75 
Q 45.40625 17.390625 45.40625 27.296875 
Q 45.40625 37.203125 41.296875 42.84375 
Q 37.203125 48.484375 30.078125 48.484375 
Q 22.953125 48.484375 18.875 42.84375 
Q 14.796875 37.203125 14.796875 27.296875 
z
" id="DejaVuSans-64"/>
     </defs>
     <g transform="translate(202.664062 217.276563)scale(0.1 -0.1)">
      <use xlink:href="#DejaVuSans-6c"/>
      <use x="27.783203" xlink:href="#DejaVuSans-61"/>
      <use x="89.0625" xlink:href="#DejaVuSans-6d"/>
      <use x="186.474609" xlink:href="#DejaVuSans-62"/>
      <use x="249.951172" xlink:href="#DejaVuSans-64"/>
      <use x="313.427734" xlink:href="#DejaVuSans-61"/>
     </g>
    </g>
   </g>
   <g id="matplotlib.axis_2">
    <g id="ytick_1">
     <g id="line2d_6">
      <defs>
       <path d="M 0 0 
L -3.5 0 
" id="mc00fad8802" style="stroke:#000000;stroke-width:0.8;"/>
      </defs>
      <g>
       <use style="stroke:#000000;stroke-width:0.8;" x="54" xlink:href="#mc00fad8802" y="184.516091"/>
      </g>
     </g>
     <g id="text_7">
      <!-- 0.0 -->
      <defs>
       <path d="M 10.6875 12.40625 
L 21 12.40625 
L 21 0 
L 10.6875 0 
z
" id="DejaVuSans-2e"/>
      </defs>
      <g transform="translate(31.096875 188.31531)scale(0.1 -0.1)">
       <use xlink:href="#DejaVuSans-30"/>
       <use x="63.623047" xlink:href="#DejaVuSans-2e"/>
       <use x="95.410156" xlink:href="#DejaVuSans-30"/>
      </g>
     </g>
    </g>
    <g id="ytick_2">
     <g id="line2d_7">
      <g>
       <use style="stroke:#000000;stroke-width:0.8;" x="54" xlink:href="#mc00fad8802" y="155.557075"/>
      </g>
     </g>
     <g id="text_8">
      <!-- 0.5 -->
      <g transform="translate(31.096875 159.356294)scale(0.1 -0.1)">
       <use xlink:href="#DejaVuSans-30"/>
       <use x="63.623047" xlink:href="#DejaVuSans-2e"/>
       <use x="95.410156" xlink:href="#DejaVuSans-35"/>
      </g>
     </g>
    </g>
    <g id="ytick_3">
     <g id="line2d_8">
      <g>
       <use style="stroke:#000000;stroke-width:0.8;" x="54" xlink:href="#mc00fad8802" y="126.59806"/>
      </g>
     </g>
     <g id="text_9">
      <!-- 1.0 -->
      <g transform="translate(31.096875 130.397278)scale(0.1 -0.1)">
       <use xlink:href="#DejaVuSans-31"/>
       <use x="63.623047" xlink:href="#DejaVuSans-2e"/>
       <use x="95.410156" xlink:href="#DejaVuSans-30"/>
      </g>
     </g>
    </g>
    <g id="ytick_4">
     <g id="line2d_9">
      <g>
       <use style="stroke:#000000;stroke-width:0.8;" x="54" xlink:href="#mc00fad8802" y="97.639044"/>
      </g>
     </g>
     <g id="text_10">
      <!-- 1.5 -->
      <g transform="translate(31.096875 101.438263)scale(0.1 -0.1)">
       <use xlink:href="#DejaVuSans-31"/>
       <use x="63.623047" xlink:href="#DejaVuSans-2e"/>
       <use x="95.410156" xlink:href="#DejaVuSans-35"/>
      </g>
     </g>
    </g>
    <g id="ytick_5">
     <g id="line2d_10">
      <g>
       <use style="stroke:#000000;stroke-width:0.8;" x="54" xlink:href="#mc00fad8802" y="68.680028"/>
      </g>
     </g>
     <g id="text_11">
      <!-- 2.0 -->
      <g transform="translate(31.096875 72.479247)scale(0.1 -0.1)">
       <use xlink:href="#DejaVuSans-32"/>
       <use x="63.623047" xlink:href="#DejaVuSans-2e"/>
       <use x="95.410156" xlink:href="#DejaVuSans-30"/>
      </g>
     </g>
    </g>
    <g id="ytick_6">
     <g id="line2d_11">
      <g>
       <use style="stroke:#000000;stroke-width:0.8;" x="54" xlink:href="#mc00fad8802" y="39.721012"/>
      </g>
     </g>
     <g id="text_12">
      <!-- 2.5 -->
      <g transform="translate(31.096875 43.520231)scale(0.1 -0.1)">
       <use xlink:href="#DejaVuSans-32"/>
       <use x="63.623047" xlink:href="#DejaVuSans-2e"/>
       <use x="95.410156" xlink:href="#DejaVuSans-35"/>
      </g>
     </g>
    </g>
    <g id="text_13">
     <!-- ||x|| -->
     <defs>
      <path d="M 21 76.421875 
L 21 -23.578125 
L 12.703125 -23.578125 
L 12.703125 76.421875 
z
" id="DejaVuSans-7c"/>
      <path d="M 54.890625 54.6875 
L 35.109375 28.078125 
L 55.90625 0 
L 45.3125 0 
L 29.390625 21.484375 
L 13.484375 0 
L 2.875 0 
L 24.125 28.609375 
L 4.6875 54.6875 
L 15.28125 54.6875 
L 29.78125 35.203125 
L 44.28125 54.6875 
z
" id="DejaVuSans-78"/>
     </defs>
     <g transform="translate(24.739062 117.156875)rotate(-90)scale(0.1 -0.1)">
      <use xlink:href="#DejaVuSans-7c"/>
      <use x="33.691406" xlink:href="#DejaVuSans-7c"/>
      <use x="67.382812" xlink:href="#DejaVuSans-78"/>
      <use x="126.5625" xlink:href="#DejaVuSans-7c"/>
      <use x="160.253906" xlink:href="#DejaVuSans-7c"/>
     </g>
    </g>
   </g>
   <g id="patch_3">
    <path d="M 54 189 
L 54 25.92 
" style="fill:none;stroke:#000000;stroke-linecap:square;stroke-linejoin:miter;stroke-width:0.8;"/>
   </g>
   <g id="patch_4">
    <path d="M 388.8 189 
L 388.8 25.92 
" style="fill:none;stroke:#000000;stroke-linecap:square;stroke-linejoin:miter;stroke-width:0.8;"/>
   </g>
   <g id="patch_5">
    <path d="M 54 189 
L 388.8 189 
" style="fill:none;stroke:#000000;stroke-linecap:square;stroke-linejoin:miter;stroke-width:0.8;"/>
   </g>
   <g id="patch_6">
    <path d="M 54 25.92 
L 388.8 25.92 
" style="fill:none;stroke:#000000;stroke-linecap:square;stroke-linejoin:miter;stroke-width:0.8;"/>
   </g>
  </g>
 </g>
 <defs>
  <clipPath id="p43d28255f9">
   <rect height="163.08" width="334.8" x="54" y="25.92"/>
  </clipPath>
 </defs>
</svg>
