<?xml version="1.0" encoding="utf-8" standalone="no"?>
<!DOCTYPE svg PUBLIC "-//W3C//DTD SVG 1.1//EN"
  "http://www.w3.org/Graphics/SVG/1.1/DTD/svg11.dtd">
<!-- Created with matplotlib (http://matplotlib.org/) -->
<svg height="216pt" version="1.1" viewBox="0 0 432 216" width="432pt" xmlns="http://www.w3.org/2000/svg" xmlns:xlink="http://www.w3.org/1999/xlink">
 <defs>
  <style type="text/css">
*{stroke-linecap:butt;stroke-linejoin:round;}
  </style>
 </defs>
 <g id="figure_1">
  <g id="patch_1">
   <path d="M 0 216 
L 432 216 
L 432 0 
L 0 0 
z
" style="fill:#ffffff;"/>
  </g>
  <g id="axes_1">
   <g id="patch_2">
    <path d="M 54 189 
L 388.8 189 
L 388.8 25.92 
L 54 25.92 
z
" style="fill:#ffffff;"/>
   </g>
   <g id="PathCollection_1">
    <defs>
     <path d="M 0 3 
C 0.795609 3 1.55874 2.683901 2.12132 2.12132 
C 2.683901 1.55874 3 0.795609 3 0 
C 3 -0.795609 2.683901 -1.55874 2.12132 -2.12132 
C 1.55874 -2.683901 0.795609 -3 0 -3 
C -0.795609 -3 -1.55874 -2.683901 -2.12132 -2.12132 
C -2.683901 -1.55874 -3 -0.795609 -3 0 
C -3 0.795609 -2.683901 1.55874 -2.12132 2.12132 
C -1.55874 2.683901 -0.795609 3 0 3 
z
" id="m06348e126f" style="stroke:#1f77b4;"/>
    </defs>
    <g clip-path="url(#p41fe88ba27)">
     <use style="fill:#1f77b4;stroke:#1f77b4;" x="70.55641" xlink:href="#m06348e126f" y="180.099988"/>
     <use style="fill:#1f77b4;stroke:#1f77b4;" x="70.700894" xlink:href="#m06348e126f" y="180.09503"/>
     <use style="fill:#1f77b4;stroke:#1f77b4;" x="70.890852" xlink:href="#m06348e126f" y="180.088495"/>
     <use style="fill:#1f77b4;stroke:#1f77b4;" x="71.099805" xlink:href="#m06348e126f" y="180.081286"/>
     <use style="fill:#1f77b4;stroke:#1f77b4;" x="71.360946" xlink:href="#m06348e126f" y="180.072246"/>
     <use style="fill:#1f77b4;stroke:#1f77b4;" x="71.679669" xlink:href="#m06348e126f" y="180.061168"/>
     <use style="fill:#1f77b4;stroke:#1f77b4;" x="72.06195" xlink:href="#m06348e126f" y="180.047813"/>
     <use style="fill:#1f77b4;stroke:#1f77b4;" x="72.514406" xlink:href="#m06348e126f" y="180.031913"/>
     <use style="fill:#1f77b4;stroke:#1f77b4;" x="73.044368" xlink:href="#m06348e126f" y="180.013157"/>
     <use style="fill:#1f77b4;stroke:#1f77b4;" x="73.659961" xlink:href="#m06348e126f" y="179.99119"/>
     <use style="fill:#1f77b4;stroke:#1f77b4;" x="74.370187" xlink:href="#m06348e126f" y="179.965601"/>
     <use style="fill:#1f77b4;stroke:#1f77b4;" x="75.185028" xlink:href="#m06348e126f" y="179.935916"/>
     <use style="fill:#1f77b4;stroke:#1f77b4;" x="76.115551" xlink:href="#m06348e126f" y="179.901581"/>
     <use style="fill:#1f77b4;stroke:#1f77b4;" x="77.174037" xlink:href="#m06348e126f" y="179.861948"/>
     <use style="fill:#1f77b4;stroke:#1f77b4;" x="78.374114" xlink:href="#m06348e126f" y="179.816253"/>
     <use style="fill:#1f77b4;stroke:#1f77b4;" x="79.730918" xlink:href="#m06348e126f" y="179.763592"/>
     <use style="fill:#1f77b4;stroke:#1f77b4;" x="81.26127" xlink:href="#m06348e126f" y="179.702882"/>
     <use style="fill:#1f77b4;stroke:#1f77b4;" x="82.983876" xlink:href="#m06348e126f" y="179.632822"/>
     <use style="fill:#1f77b4;stroke:#1f77b4;" x="84.919561" xlink:href="#m06348e126f" y="179.551828"/>
     <use style="fill:#1f77b4;stroke:#1f77b4;" x="87.091538" xlink:href="#m06348e126f" y="179.457958"/>
     <use style="fill:#1f77b4;stroke:#1f77b4;" x="89.525715" xlink:href="#m06348e126f" y="179.348798"/>
     <use style="fill:#1f77b4;stroke:#1f77b4;" x="92.251062" xlink:href="#m06348e126f" y="179.221313"/>
     <use style="fill:#1f77b4;stroke:#1f77b4;" x="95.30005" xlink:href="#m06348e126f" y="179.07163"/>
     <use style="fill:#1f77b4;stroke:#1f77b4;" x="98.709175" xlink:href="#m06348e126f" y="178.894725"/>
     <use style="fill:#1f77b4;stroke:#1f77b4;" x="102.519619" xlink:href="#m06348e126f" y="178.683954"/>
     <use style="fill:#1f77b4;stroke:#1f77b4;" x="106.77808" xlink:href="#m06348e126f" y="178.430337"/>
     <use style="fill:#1f77b4;stroke:#1f77b4;" x="111.537875" xlink:href="#m06348e126f" y="178.121417"/>
     <use style="fill:#1f77b4;stroke:#1f77b4;" x="116.860456" xlink:href="#m06348e126f" y="177.739371"/>
     <use style="fill:#1f77b4;stroke:#1f77b4;" x="122.817607" xlink:href="#m06348e126f" y="177.25772"/>
     <use style="fill:#1f77b4;stroke:#1f77b4;" x="129.494853" xlink:href="#m06348e126f" y="176.635235"/>
     <use style="fill:#1f77b4;stroke:#1f77b4;" x="136.997199" xlink:href="#m06348e126f" y="175.803765"/>
     <use style="fill:#1f77b4;stroke:#1f77b4;" x="145.459813" xlink:href="#m06348e126f" y="174.641285"/>
     <use style="fill:#1f77b4;stroke:#1f77b4;" x="155.070758" xlink:href="#m06348e126f" y="172.903303"/>
     <use style="fill:#1f77b4;stroke:#1f77b4;" x="166.1291" xlink:href="#m06348e126f" y="170.007914"/>
     <use style="fill:#1f77b4;stroke:#1f77b4;" x="179.243616" xlink:href="#m06348e126f" y="164.07381"/>
     <use style="fill:#1f77b4;stroke:#1f77b4;" x="196.656332" xlink:href="#m06348e126f" y="141.431448"/>
     <use style="fill:#1f77b4;stroke:#1f77b4;" x="208.773979" xlink:href="#m06348e126f" y="58.392867"/>
     <use style="fill:#1f77b4;stroke:#1f77b4;" x="212.432006" xlink:href="#m06348e126f" y="36.067815"/>
     <use style="fill:#1f77b4;stroke:#1f77b4;" x="212.249727" xlink:href="#m06348e126f" y="35.252573"/>
     <use style="fill:#1f77b4;stroke:#1f77b4;" x="211.992537" xlink:href="#m06348e126f" y="34.491963"/>
     <use style="fill:#1f77b4;stroke:#1f77b4;" x="211.522825" xlink:href="#m06348e126f" y="34.333869"/>
     <use style="fill:#1f77b4;stroke:#1f77b4;" x="210.937586" xlink:href="#m06348e126f" y="36.348141"/>
     <use style="fill:#1f77b4;stroke:#1f77b4;" x="210.508536" xlink:href="#m06348e126f" y="39.23403"/>
     <use style="fill:#1f77b4;stroke:#1f77b4;" x="210.133419" xlink:href="#m06348e126f" y="42.563174"/>
     <use style="fill:#1f77b4;stroke:#1f77b4;" x="209.775292" xlink:href="#m06348e126f" y="46.291205"/>
     <use style="fill:#1f77b4;stroke:#1f77b4;" x="209.415929" xlink:href="#m06348e126f" y="50.427723"/>
     <use style="fill:#1f77b4;stroke:#1f77b4;" x="209.042822" xlink:href="#m06348e126f" y="54.998605"/>
     <use style="fill:#1f77b4;stroke:#1f77b4;" x="208.644919" xlink:href="#m06348e126f" y="60.037549"/>
     <use style="fill:#1f77b4;stroke:#1f77b4;" x="208.210498" xlink:href="#m06348e126f" y="65.583164"/>
     <use style="fill:#1f77b4;stroke:#1f77b4;" x="207.725507" xlink:href="#m06348e126f" y="71.677342"/>
     <use style="fill:#1f77b4;stroke:#1f77b4;" x="207.171653" xlink:href="#m06348e126f" y="78.363527"/>
     <use style="fill:#1f77b4;stroke:#1f77b4;" x="206.5237" xlink:href="#m06348e126f" y="85.68388"/>
     <use style="fill:#1f77b4;stroke:#1f77b4;" x="205.745211" xlink:href="#m06348e126f" y="93.673755"/>
     <use style="fill:#1f77b4;stroke:#1f77b4;" x="204.78154" xlink:href="#m06348e126f" y="102.350269"/>
     <use style="fill:#1f77b4;stroke:#1f77b4;" x="203.54849" xlink:href="#m06348e126f" y="111.687998"/>
     <use style="fill:#1f77b4;stroke:#1f77b4;" x="201.915928" xlink:href="#m06348e126f" y="121.567672"/>
     <use style="fill:#1f77b4;stroke:#1f77b4;" x="199.694471" xlink:href="#m06348e126f" y="131.679712"/>
     <use style="fill:#1f77b4;stroke:#1f77b4;" x="196.662645" xlink:href="#m06348e126f" y="141.414716"/>
     <use style="fill:#1f77b4;stroke:#1f77b4;" x="192.68333" xlink:href="#m06348e126f" y="149.967541"/>
     <use style="fill:#1f77b4;stroke:#1f77b4;" x="187.797678" xlink:href="#m06348e126f" y="156.834489"/>
     <use style="fill:#1f77b4;stroke:#1f77b4;" x="182.122504" xlink:href="#m06348e126f" y="162.087811"/>
     <use style="fill:#1f77b4;stroke:#1f77b4;" x="175.725912" xlink:href="#m06348e126f" y="166.080366"/>
     <use style="fill:#1f77b4;stroke:#1f77b4;" x="168.613201" xlink:href="#m06348e126f" y="169.156173"/>
     <use style="fill:#1f77b4;stroke:#1f77b4;" x="160.750245" xlink:href="#m06348e126f" y="171.571346"/>
     <use style="fill:#1f77b4;stroke:#1f77b4;" x="152.080281" xlink:href="#m06348e126f" y="173.503611"/>
     <use style="fill:#1f77b4;stroke:#1f77b4;" x="142.531835" xlink:href="#m06348e126f" y="175.075464"/>
     <use style="fill:#1f77b4;stroke:#1f77b4;" x="132.021925" xlink:href="#m06348e126f" y="176.372564"/>
     <use style="fill:#1f77b4;stroke:#1f77b4;" x="120.457081" xlink:href="#m06348e126f" y="177.456069"/>
     <use style="fill:#1f77b4;stroke:#1f77b4;" x="107.733334" xlink:href="#m06348e126f" y="178.370601"/>
     <use style="fill:#1f77b4;stroke:#1f77b4;" x="93.735692" xlink:href="#m06348e126f" y="179.149393"/>
     <use style="fill:#1f77b4;stroke:#1f77b4;" x="78.33731" xlink:href="#m06348e126f" y="179.817667"/>
     <use style="fill:#1f77b4;stroke:#1f77b4;" x="76.824691" xlink:href="#m06348e126f" y="180.394891"/>
     <use style="fill:#1f77b4;stroke:#1f77b4;" x="75.122034" xlink:href="#m06348e126f" y="179.938224"/>
     <use style="fill:#1f77b4;stroke:#1f77b4;" x="73.234869" xlink:href="#m06348e126f" y="180.00638"/>
     <use style="fill:#1f77b4;stroke:#1f77b4;" x="71.15898" xlink:href="#m06348e126f" y="180.07924"/>
     <use style="fill:#1f77b4;stroke:#1f77b4;" x="69.347648" xlink:href="#m06348e126f" y="180.156971"/>
     <use style="fill:#1f77b4;stroke:#1f77b4;" x="70.868101" xlink:href="#m06348e126f" y="180.207331"/>
     <use style="fill:#1f77b4;stroke:#1f77b4;" x="72.541314" xlink:href="#m06348e126f" y="180.030964"/>
     <use style="fill:#1f77b4;stroke:#1f77b4;" x="74.383106" xlink:href="#m06348e126f" y="179.965133"/>
     <use style="fill:#1f77b4;stroke:#1f77b4;" x="76.40907" xlink:href="#m06348e126f" y="179.890653"/>
     <use style="fill:#1f77b4;stroke:#1f77b4;" x="78.637622" xlink:href="#m06348e126f" y="179.806109"/>
     <use style="fill:#1f77b4;stroke:#1f77b4;" x="81.089017" xlink:href="#m06348e126f" y="179.709786"/>
     <use style="fill:#1f77b4;stroke:#1f77b4;" x="83.785536" xlink:href="#m06348e126f" y="179.599575"/>
     <use style="fill:#1f77b4;stroke:#1f77b4;" x="86.751686" xlink:href="#m06348e126f" y="179.472861"/>
     <use style="fill:#1f77b4;stroke:#1f77b4;" x="90.014423" xlink:href="#m06348e126f" y="179.326357"/>
     <use style="fill:#1f77b4;stroke:#1f77b4;" x="93.603395" xlink:href="#m06348e126f" y="179.155875"/>
     <use style="fill:#1f77b4;stroke:#1f77b4;" x="97.551209" xlink:href="#m06348e126f" y="178.955996"/>
     <use style="fill:#1f77b4;stroke:#1f77b4;" x="101.893726" xlink:href="#m06348e126f" y="178.719576"/>
     <use style="fill:#1f77b4;stroke:#1f77b4;" x="106.670382" xlink:href="#m06348e126f" y="178.437003"/>
     <use style="fill:#1f77b4;stroke:#1f77b4;" x="111.924531" xlink:href="#m06348e126f" y="178.095032"/>
     <use style="fill:#1f77b4;stroke:#1f77b4;" x="117.703829" xlink:href="#m06348e126f" y="177.674879"/>
     <use style="fill:#1f77b4;stroke:#1f77b4;" x="124.060625" xlink:href="#m06348e126f" y="177.148995"/>
     <use style="fill:#1f77b4;stroke:#1f77b4;" x="131.052367" xlink:href="#m06348e126f" y="176.475279"/>
     <use style="fill:#1f77b4;stroke:#1f77b4;" x="138.741955" xlink:href="#m06348e126f" y="175.586028"/>
     <use style="fill:#1f77b4;stroke:#1f77b4;" x="147.197888" xlink:href="#m06348e126f" y="174.365044"/>
     <use style="fill:#1f77b4;stroke:#1f77b4;" x="156.493676" xlink:href="#m06348e126f" y="172.59506"/>
     <use style="fill:#1f77b4;stroke:#1f77b4;" x="166.704347" xlink:href="#m06348e126f" y="169.818915"/>
     <use style="fill:#1f77b4;stroke:#1f77b4;" x="177.888749" xlink:href="#m06348e126f" y="164.894765"/>
     <use style="fill:#1f77b4;stroke:#1f77b4;" x="189.972593" xlink:href="#m06348e126f" y="154.134476"/>
     <use style="fill:#1f77b4;stroke:#1f77b4;" x="201.658143" xlink:href="#m06348e126f" y="122.914594"/>
     <use style="fill:#1f77b4;stroke:#1f77b4;" x="208.350692" xlink:href="#m06348e126f" y="63.79669"/>
     <use style="fill:#1f77b4;stroke:#1f77b4;" x="209.715091" xlink:href="#m06348e126f" y="46.960303"/>
     <use style="fill:#1f77b4;stroke:#1f77b4;" x="210.688211" xlink:href="#m06348e126f" y="37.894173"/>
     <use style="fill:#1f77b4;stroke:#1f77b4;" x="211.097478" xlink:href="#m06348e126f" y="35.564334"/>
     <use style="fill:#1f77b4;stroke:#1f77b4;" x="211.431833" xlink:href="#m06348e126f" y="34.489108"/>
     <use style="fill:#1f77b4;stroke:#1f77b4;" x="211.707375" xlink:href="#m06348e126f" y="34.203895"/>
     <use style="fill:#1f77b4;stroke:#1f77b4;" x="212.091267" xlink:href="#m06348e126f" y="34.728712"/>
     <use style="fill:#1f77b4;stroke:#1f77b4;" x="212.422629" xlink:href="#m06348e126f" y="36.020481"/>
     <use style="fill:#1f77b4;stroke:#1f77b4;" x="212.702671" xlink:href="#m06348e126f" y="37.674164"/>
     <use style="fill:#1f77b4;stroke:#1f77b4;" x="212.958381" xlink:href="#m06348e126f" y="39.58843"/>
     <use style="fill:#1f77b4;stroke:#1f77b4;" x="213.203903" xlink:href="#m06348e126f" y="41.745438"/>
     <use style="fill:#1f77b4;stroke:#1f77b4;" x="213.447558" xlink:href="#m06348e126f" y="44.150452"/>
     <use style="fill:#1f77b4;stroke:#1f77b4;" x="213.695178" xlink:href="#m06348e126f" y="46.818173"/>
     <use style="fill:#1f77b4;stroke:#1f77b4;" x="213.951551" xlink:href="#m06348e126f" y="49.768628"/>
     <use style="fill:#1f77b4;stroke:#1f77b4;" x="214.221201" xlink:href="#m06348e126f" y="53.025667"/>
     <use style="fill:#1f77b4;stroke:#1f77b4;" x="214.508844" xlink:href="#m06348e126f" y="56.61639"/>
     <use style="fill:#1f77b4;stroke:#1f77b4;" x="214.819817" xlink:href="#m06348e126f" y="60.570862"/>
     <use style="fill:#1f77b4;stroke:#1f77b4;" x="215.160521" xlink:href="#m06348e126f" y="64.921935"/>
     <use style="fill:#1f77b4;stroke:#1f77b4;" x="215.538968" xlink:href="#m06348e126f" y="69.705026"/>
     <use style="fill:#1f77b4;stroke:#1f77b4;" x="215.965563" xlink:href="#m06348e126f" y="74.957669"/>
     <use style="fill:#1f77b4;stroke:#1f77b4;" x="216.454233" xlink:href="#m06348e126f" y="80.718635"/>
     <use style="fill:#1f77b4;stroke:#1f77b4;" x="217.024185" xlink:href="#m06348e126f" y="87.02616"/>
     <use style="fill:#1f77b4;stroke:#1f77b4;" x="217.702648" xlink:href="#m06348e126f" y="93.914428"/>
     <use style="fill:#1f77b4;stroke:#1f77b4;" x="218.529282" xlink:href="#m06348e126f" y="101.40653"/>
     <use style="fill:#1f77b4;stroke:#1f77b4;" x="219.563131" xlink:href="#m06348e126f" y="109.500209"/>
     <use style="fill:#1f77b4;stroke:#1f77b4;" x="220.892801" xlink:href="#m06348e126f" y="118.139185"/>
     <use style="fill:#1f77b4;stroke:#1f77b4;" x="222.647645" xlink:href="#m06348e126f" y="127.158893"/>
     <use style="fill:#1f77b4;stroke:#1f77b4;" x="224.996212" xlink:href="#m06348e126f" y="136.206408"/>
     <use style="fill:#1f77b4;stroke:#1f77b4;" x="228.099687" xlink:href="#m06348e126f" y="144.708422"/>
     <use style="fill:#1f77b4;stroke:#1f77b4;" x="232.021834" xlink:href="#m06348e126f" y="152.067251"/>
     <use style="fill:#1f77b4;stroke:#1f77b4;" x="236.711063" xlink:href="#m06348e126f" y="158.015537"/>
     <use style="fill:#1f77b4;stroke:#1f77b4;" x="242.092189" xlink:href="#m06348e126f" y="162.67028"/>
     <use style="fill:#1f77b4;stroke:#1f77b4;" x="248.131295" xlink:href="#m06348e126f" y="166.301825"/>
     <use style="fill:#1f77b4;stroke:#1f77b4;" x="254.837579" xlink:href="#m06348e126f" y="169.166239"/>
     <use style="fill:#1f77b4;stroke:#1f77b4;" x="262.248568" xlink:href="#m06348e126f" y="171.459993"/>
     <use style="fill:#1f77b4;stroke:#1f77b4;" x="270.419623" xlink:href="#m06348e126f" y="173.324777"/>
     <use style="fill:#1f77b4;stroke:#1f77b4;" x="279.418709" xlink:href="#m06348e126f" y="174.861783"/>
     <use style="fill:#1f77b4;stroke:#1f77b4;" x="289.324198" xlink:href="#m06348e126f" y="176.143948"/>
     <use style="fill:#1f77b4;stroke:#1f77b4;" x="300.224207" xlink:href="#m06348e126f" y="177.224703"/>
     <use style="fill:#1f77b4;stroke:#1f77b4;" x="312.216707" xlink:href="#m06348e126f" y="178.143885"/>
     <use style="fill:#1f77b4;stroke:#1f77b4;" x="325.410049" xlink:href="#m06348e126f" y="178.931715"/>
     <use style="fill:#1f77b4;stroke:#1f77b4;" x="339.923764" xlink:href="#m06348e126f" y="179.611498"/>
     <use style="fill:#1f77b4;stroke:#1f77b4;" x="355.889538" xlink:href="#m06348e126f" y="180.201472"/>
     <use style="fill:#1f77b4;stroke:#1f77b4;" x="373.452352" xlink:href="#m06348e126f" y="180.716105"/>
    </g>
   </g>
   <g id="matplotlib.axis_1">
    <g id="xtick_1">
     <g id="line2d_1">
      <defs>
       <path d="M 0 0 
L 0 3.5 
" id="mbb374f58ab" style="stroke:#000000;stroke-width:0.8;"/>
      </defs>
      <g>
       <use style="stroke:#000000;stroke-width:0.8;" x="69.111571" xlink:href="#mbb374f58ab" y="189"/>
      </g>
     </g>
     <g id="text_1">
      <!-- 0 -->
      <defs>
       <path d="M 31.78125 66.40625 
Q 24.171875 66.40625 20.328125 58.90625 
Q 16.5 51.421875 16.5 36.375 
Q 16.5 21.390625 20.328125 13.890625 
Q 24.171875 6.390625 31.78125 6.390625 
Q 39.453125 6.390625 43.28125 13.890625 
Q 47.125 21.390625 47.125 36.375 
Q 47.125 51.421875 43.28125 58.90625 
Q 39.453125 66.40625 31.78125 66.40625 
z
M 31.78125 74.21875 
Q 44.046875 74.21875 50.515625 64.515625 
Q 56.984375 54.828125 56.984375 36.375 
Q 56.984375 17.96875 50.515625 8.265625 
Q 44.046875 -1.421875 31.78125 -1.421875 
Q 19.53125 -1.421875 13.0625 8.265625 
Q 6.59375 17.96875 6.59375 36.375 
Q 6.59375 54.828125 13.0625 64.515625 
Q 19.53125 74.21875 31.78125 74.21875 
z
" id="DejaVuSans-30"/>
      </defs>
      <g transform="translate(65.930321 203.598437)scale(0.1 -0.1)">
       <use xlink:href="#DejaVuSans-30"/>
      </g>
     </g>
    </g>
    <g id="xtick_2">
     <g id="line2d_2">
      <g>
       <use style="stroke:#000000;stroke-width:0.8;" x="141.353531" xlink:href="#mbb374f58ab" y="189"/>
      </g>
     </g>
     <g id="text_2">
      <!-- 5 -->
      <defs>
       <path d="M 10.796875 72.90625 
L 49.515625 72.90625 
L 49.515625 64.59375 
L 19.828125 64.59375 
L 19.828125 46.734375 
Q 21.96875 47.46875 24.109375 47.828125 
Q 26.265625 48.1875 28.421875 48.1875 
Q 40.625 48.1875 47.75 41.5 
Q 54.890625 34.8125 54.890625 23.390625 
Q 54.890625 11.625 47.5625 5.09375 
Q 40.234375 -1.421875 26.90625 -1.421875 
Q 22.3125 -1.421875 17.546875 -0.640625 
Q 12.796875 0.140625 7.71875 1.703125 
L 7.71875 11.625 
Q 12.109375 9.234375 16.796875 8.0625 
Q 21.484375 6.890625 26.703125 6.890625 
Q 35.15625 6.890625 40.078125 11.328125 
Q 45.015625 15.765625 45.015625 23.390625 
Q 45.015625 31 40.078125 35.4375 
Q 35.15625 39.890625 26.703125 39.890625 
Q 22.75 39.890625 18.8125 39.015625 
Q 14.890625 38.140625 10.796875 36.28125 
z
" id="DejaVuSans-35"/>
      </defs>
      <g transform="translate(138.172281 203.598437)scale(0.1 -0.1)">
       <use xlink:href="#DejaVuSans-35"/>
      </g>
     </g>
    </g>
    <g id="xtick_3">
     <g id="line2d_3">
      <g>
       <use style="stroke:#000000;stroke-width:0.8;" x="213.595491" xlink:href="#mbb374f58ab" y="189"/>
      </g>
     </g>
     <g id="text_3">
      <!-- 10 -->
      <defs>
       <path d="M 12.40625 8.296875 
L 28.515625 8.296875 
L 28.515625 63.921875 
L 10.984375 60.40625 
L 10.984375 69.390625 
L 28.421875 72.90625 
L 38.28125 72.90625 
L 38.28125 8.296875 
L 54.390625 8.296875 
L 54.390625 0 
L 12.40625 0 
z
" id="DejaVuSans-31"/>
      </defs>
      <g transform="translate(207.232991 203.598437)scale(0.1 -0.1)">
       <use xlink:href="#DejaVuSans-31"/>
       <use x="63.623047" xlink:href="#DejaVuSans-30"/>
      </g>
     </g>
    </g>
    <g id="xtick_4">
     <g id="line2d_4">
      <g>
       <use style="stroke:#000000;stroke-width:0.8;" x="285.837451" xlink:href="#mbb374f58ab" y="189"/>
      </g>
     </g>
     <g id="text_4">
      <!-- 15 -->
      <g transform="translate(279.474951 203.598437)scale(0.1 -0.1)">
       <use xlink:href="#DejaVuSans-31"/>
       <use x="63.623047" xlink:href="#DejaVuSans-35"/>
      </g>
     </g>
    </g>
    <g id="xtick_5">
     <g id="line2d_5">
      <g>
       <use style="stroke:#000000;stroke-width:0.8;" x="358.079411" xlink:href="#mbb374f58ab" y="189"/>
      </g>
     </g>
     <g id="text_5">
      <!-- 20 -->
      <defs>
       <path d="M 19.1875 8.296875 
L 53.609375 8.296875 
L 53.609375 0 
L 7.328125 0 
L 7.328125 8.296875 
Q 12.9375 14.109375 22.625 23.890625 
Q 32.328125 33.6875 34.8125 36.53125 
Q 39.546875 41.84375 41.421875 45.53125 
Q 43.3125 49.21875 43.3125 52.78125 
Q 43.3125 58.59375 39.234375 62.25 
Q 35.15625 65.921875 28.609375 65.921875 
Q 23.96875 65.921875 18.8125 64.3125 
Q 13.671875 62.703125 7.8125 59.421875 
L 7.8125 69.390625 
Q 13.765625 71.78125 18.9375 73 
Q 24.125 74.21875 28.421875 74.21875 
Q 39.75 74.21875 46.484375 68.546875 
Q 53.21875 62.890625 53.21875 53.421875 
Q 53.21875 48.921875 51.53125 44.890625 
Q 49.859375 40.875 45.40625 35.40625 
Q 44.1875 33.984375 37.640625 27.21875 
Q 31.109375 20.453125 19.1875 8.296875 
z
" id="DejaVuSans-32"/>
      </defs>
      <g transform="translate(351.716911 203.598437)scale(0.1 -0.1)">
       <use xlink:href="#DejaVuSans-32"/>
       <use x="63.623047" xlink:href="#DejaVuSans-30"/>
      </g>
     </g>
    </g>
    <g id="text_6">
     <!-- lambda -->
     <defs>
      <path d="M 9.421875 75.984375 
L 18.40625 75.984375 
L 18.40625 0 
L 9.421875 0 
z
" id="DejaVuSans-6c"/>
      <path d="M 34.28125 27.484375 
Q 23.390625 27.484375 19.1875 25 
Q 14.984375 22.515625 14.984375 16.5 
Q 14.984375 11.71875 18.140625 8.90625 
Q 21.296875 6.109375 26.703125 6.109375 
Q 34.1875 6.109375 38.703125 11.40625 
Q 43.21875 16.703125 43.21875 25.484375 
L 43.21875 27.484375 
z
M 52.203125 31.203125 
L 52.203125 0 
L 43.21875 0 
L 43.21875 8.296875 
Q 40.140625 3.328125 35.546875 0.953125 
Q 30.953125 -1.421875 24.3125 -1.421875 
Q 15.921875 -1.421875 10.953125 3.296875 
Q 6 8.015625 6 15.921875 
Q 6 25.140625 12.171875 29.828125 
Q 18.359375 34.515625 30.609375 34.515625 
L 43.21875 34.515625 
L 43.21875 35.40625 
Q 43.21875 41.609375 39.140625 45 
Q 35.0625 48.390625 27.6875 48.390625 
Q 23 48.390625 18.546875 47.265625 
Q 14.109375 46.140625 10.015625 43.890625 
L 10.015625 52.203125 
Q 14.9375 54.109375 19.578125 55.046875 
Q 24.21875 56 28.609375 56 
Q 40.484375 56 46.34375 49.84375 
Q 52.203125 43.703125 52.203125 31.203125 
z
" id="DejaVuSans-61"/>
      <path d="M 52 44.1875 
Q 55.375 50.25 60.0625 53.125 
Q 64.75 56 71.09375 56 
Q 79.640625 56 84.28125 50.015625 
Q 88.921875 44.046875 88.921875 33.015625 
L 88.921875 0 
L 79.890625 0 
L 79.890625 32.71875 
Q 79.890625 40.578125 77.09375 44.375 
Q 74.3125 48.1875 68.609375 48.1875 
Q 61.625 48.1875 57.5625 43.546875 
Q 53.515625 38.921875 53.515625 30.90625 
L 53.515625 0 
L 44.484375 0 
L 44.484375 32.71875 
Q 44.484375 40.625 41.703125 44.40625 
Q 38.921875 48.1875 33.109375 48.1875 
Q 26.21875 48.1875 22.15625 43.53125 
Q 18.109375 38.875 18.109375 30.90625 
L 18.109375 0 
L 9.078125 0 
L 9.078125 54.6875 
L 18.109375 54.6875 
L 18.109375 46.1875 
Q 21.1875 51.21875 25.484375 53.609375 
Q 29.78125 56 35.6875 56 
Q 41.65625 56 45.828125 52.96875 
Q 50 49.953125 52 44.1875 
z
" id="DejaVuSans-6d"/>
      <path d="M 48.6875 27.296875 
Q 48.6875 37.203125 44.609375 42.84375 
Q 40.53125 48.484375 33.40625 48.484375 
Q 26.265625 48.484375 22.1875 42.84375 
Q 18.109375 37.203125 18.109375 27.296875 
Q 18.109375 17.390625 22.1875 11.75 
Q 26.265625 6.109375 33.40625 6.109375 
Q 40.53125 6.109375 44.609375 11.75 
Q 48.6875 17.390625 48.6875 27.296875 
z
M 18.109375 46.390625 
Q 20.953125 51.265625 25.265625 53.625 
Q 29.59375 56 35.59375 56 
Q 45.5625 56 51.78125 48.09375 
Q 58.015625 40.1875 58.015625 27.296875 
Q 58.015625 14.40625 51.78125 6.484375 
Q 45.5625 -1.421875 35.59375 -1.421875 
Q 29.59375 -1.421875 25.265625 0.953125 
Q 20.953125 3.328125 18.109375 8.203125 
L 18.109375 0 
L 9.078125 0 
L 9.078125 75.984375 
L 18.109375 75.984375 
z
" id="DejaVuSans-62"/>
      <path d="M 45.40625 46.390625 
L 45.40625 75.984375 
L 54.390625 75.984375 
L 54.390625 0 
L 45.40625 0 
L 45.40625 8.203125 
Q 42.578125 3.328125 38.25 0.953125 
Q 33.9375 -1.421875 27.875 -1.421875 
Q 17.96875 -1.421875 11.734375 6.484375 
Q 5.515625 14.40625 5.515625 27.296875 
Q 5.515625 40.1875 11.734375 48.09375 
Q 17.96875 56 27.875 56 
Q 33.9375 56 38.25 53.625 
Q 42.578125 51.265625 45.40625 46.390625 
z
M 14.796875 27.296875 
Q 14.796875 17.390625 18.875 11.75 
Q 22.953125 6.109375 30.078125 6.109375 
Q 37.203125 6.109375 41.296875 11.75 
Q 45.40625 17.390625 45.40625 27.296875 
Q 45.40625 37.203125 41.296875 42.84375 
Q 37.203125 48.484375 30.078125 48.484375 
Q 22.953125 48.484375 18.875 42.84375 
Q 14.796875 37.203125 14.796875 27.296875 
z
" id="DejaVuSans-64"/>
     </defs>
     <g transform="translate(202.664062 217.276563)scale(0.1 -0.1)">
      <use xlink:href="#DejaVuSans-6c"/>
      <use x="27.783203" xlink:href="#DejaVuSans-61"/>
      <use x="89.0625" xlink:href="#DejaVuSans-6d"/>
      <use x="186.474609" xlink:href="#DejaVuSans-62"/>
      <use x="249.951172" xlink:href="#DejaVuSans-64"/>
      <use x="313.427734" xlink:href="#DejaVuSans-61"/>
     </g>
    </g>
   </g>
   <g id="matplotlib.axis_2">
    <g id="ytick_1">
     <g id="line2d_6">
      <defs>
       <path d="M 0 0 
L -3.5 0 
" id="mc571f2a085" style="stroke:#000000;stroke-width:0.8;"/>
      </defs>
      <g>
       <use style="stroke:#000000;stroke-width:0.8;" x="54" xlink:href="#mc571f2a085" y="184.944837"/>
      </g>
     </g>
     <g id="text_7">
      <!-- 0.0 -->
      <defs>
       <path d="M 10.6875 12.40625 
L 21 12.40625 
L 21 0 
L 10.6875 0 
z
" id="DejaVuSans-2e"/>
      </defs>
      <g transform="translate(31.096875 188.744055)scale(0.1 -0.1)">
       <use xlink:href="#DejaVuSans-30"/>
       <use x="63.623047" xlink:href="#DejaVuSans-2e"/>
       <use x="95.410156" xlink:href="#DejaVuSans-30"/>
      </g>
     </g>
    </g>
    <g id="ytick_2">
     <g id="line2d_7">
      <g>
       <use style="stroke:#000000;stroke-width:0.8;" x="54" xlink:href="#mc571f2a085" y="161.266496"/>
      </g>
     </g>
     <g id="text_8">
      <!-- 0.5 -->
      <g transform="translate(31.096875 165.065715)scale(0.1 -0.1)">
       <use xlink:href="#DejaVuSans-30"/>
       <use x="63.623047" xlink:href="#DejaVuSans-2e"/>
       <use x="95.410156" xlink:href="#DejaVuSans-35"/>
      </g>
     </g>
    </g>
    <g id="ytick_3">
     <g id="line2d_8">
      <g>
       <use style="stroke:#000000;stroke-width:0.8;" x="54" xlink:href="#mc571f2a085" y="137.588156"/>
      </g>
     </g>
     <g id="text_9">
      <!-- 1.0 -->
      <g transform="translate(31.096875 141.387374)scale(0.1 -0.1)">
       <use xlink:href="#DejaVuSans-31"/>
       <use x="63.623047" xlink:href="#DejaVuSans-2e"/>
       <use x="95.410156" xlink:href="#DejaVuSans-30"/>
      </g>
     </g>
    </g>
    <g id="ytick_4">
     <g id="line2d_9">
      <g>
       <use style="stroke:#000000;stroke-width:0.8;" x="54" xlink:href="#mc571f2a085" y="113.909815"/>
      </g>
     </g>
     <g id="text_10">
      <!-- 1.5 -->
      <g transform="translate(31.096875 117.709034)scale(0.1 -0.1)">
       <use xlink:href="#DejaVuSans-31"/>
       <use x="63.623047" xlink:href="#DejaVuSans-2e"/>
       <use x="95.410156" xlink:href="#DejaVuSans-35"/>
      </g>
     </g>
    </g>
    <g id="ytick_5">
     <g id="line2d_10">
      <g>
       <use style="stroke:#000000;stroke-width:0.8;" x="54" xlink:href="#mc571f2a085" y="90.231475"/>
      </g>
     </g>
     <g id="text_11">
      <!-- 2.0 -->
      <g transform="translate(31.096875 94.030693)scale(0.1 -0.1)">
       <use xlink:href="#DejaVuSans-32"/>
       <use x="63.623047" xlink:href="#DejaVuSans-2e"/>
       <use x="95.410156" xlink:href="#DejaVuSans-30"/>
      </g>
     </g>
    </g>
    <g id="ytick_6">
     <g id="line2d_11">
      <g>
       <use style="stroke:#000000;stroke-width:0.8;" x="54" xlink:href="#mc571f2a085" y="66.553134"/>
      </g>
     </g>
     <g id="text_12">
      <!-- 2.5 -->
      <g transform="translate(31.096875 70.352353)scale(0.1 -0.1)">
       <use xlink:href="#DejaVuSans-32"/>
       <use x="63.623047" xlink:href="#DejaVuSans-2e"/>
       <use x="95.410156" xlink:href="#DejaVuSans-35"/>
      </g>
     </g>
    </g>
    <g id="ytick_7">
     <g id="line2d_12">
      <g>
       <use style="stroke:#000000;stroke-width:0.8;" x="54" xlink:href="#mc571f2a085" y="42.874794"/>
      </g>
     </g>
     <g id="text_13">
      <!-- 3.0 -->
      <defs>
       <path d="M 40.578125 39.3125 
Q 47.65625 37.796875 51.625 33 
Q 55.609375 28.21875 55.609375 21.1875 
Q 55.609375 10.40625 48.1875 4.484375 
Q 40.765625 -1.421875 27.09375 -1.421875 
Q 22.515625 -1.421875 17.65625 -0.515625 
Q 12.796875 0.390625 7.625 2.203125 
L 7.625 11.71875 
Q 11.71875 9.328125 16.59375 8.109375 
Q 21.484375 6.890625 26.8125 6.890625 
Q 36.078125 6.890625 40.9375 10.546875 
Q 45.796875 14.203125 45.796875 21.1875 
Q 45.796875 27.640625 41.28125 31.265625 
Q 36.765625 34.90625 28.71875 34.90625 
L 20.21875 34.90625 
L 20.21875 43.015625 
L 29.109375 43.015625 
Q 36.375 43.015625 40.234375 45.921875 
Q 44.09375 48.828125 44.09375 54.296875 
Q 44.09375 59.90625 40.109375 62.90625 
Q 36.140625 65.921875 28.71875 65.921875 
Q 24.65625 65.921875 20.015625 65.03125 
Q 15.375 64.15625 9.8125 62.3125 
L 9.8125 71.09375 
Q 15.4375 72.65625 20.34375 73.4375 
Q 25.25 74.21875 29.59375 74.21875 
Q 40.828125 74.21875 47.359375 69.109375 
Q 53.90625 64.015625 53.90625 55.328125 
Q 53.90625 49.265625 50.4375 45.09375 
Q 46.96875 40.921875 40.578125 39.3125 
z
" id="DejaVuSans-33"/>
      </defs>
      <g transform="translate(31.096875 46.674013)scale(0.1 -0.1)">
       <use xlink:href="#DejaVuSans-33"/>
       <use x="63.623047" xlink:href="#DejaVuSans-2e"/>
       <use x="95.410156" xlink:href="#DejaVuSans-30"/>
      </g>
     </g>
    </g>
    <g id="text_14">
     <!-- ||x|| -->
     <defs>
      <path d="M 21 76.421875 
L 21 -23.578125 
L 12.703125 -23.578125 
L 12.703125 76.421875 
z
" id="DejaVuSans-7c"/>
      <path d="M 54.890625 54.6875 
L 35.109375 28.078125 
L 55.90625 0 
L 45.3125 0 
L 29.390625 21.484375 
L 13.484375 0 
L 2.875 0 
L 24.125 28.609375 
L 4.6875 54.6875 
L 15.28125 54.6875 
L 29.78125 35.203125 
L 44.28125 54.6875 
z
" id="DejaVuSans-78"/>
     </defs>
     <g transform="translate(24.739062 117.156875)rotate(-90)scale(0.1 -0.1)">
      <use xlink:href="#DejaVuSans-7c"/>
      <use x="33.691406" xlink:href="#DejaVuSans-7c"/>
      <use x="67.382812" xlink:href="#DejaVuSans-78"/>
      <use x="126.5625" xlink:href="#DejaVuSans-7c"/>
      <use x="160.253906" xlink:href="#DejaVuSans-7c"/>
     </g>
    </g>
   </g>
   <g id="patch_3">
    <path d="M 54 189 
L 54 25.92 
" style="fill:none;stroke:#000000;stroke-linecap:square;stroke-linejoin:miter;stroke-width:0.8;"/>
   </g>
   <g id="patch_4">
    <path d="M 388.8 189 
L 388.8 25.92 
" style="fill:none;stroke:#000000;stroke-linecap:square;stroke-linejoin:miter;stroke-width:0.8;"/>
   </g>
   <g id="patch_5">
    <path d="M 54 189 
L 388.8 189 
" style="fill:none;stroke:#000000;stroke-linecap:square;stroke-linejoin:miter;stroke-width:0.8;"/>
   </g>
   <g id="patch_6">
    <path d="M 54 25.92 
L 388.8 25.92 
" style="fill:none;stroke:#000000;stroke-linecap:square;stroke-linejoin:miter;stroke-width:0.8;"/>
   </g>
  </g>
 </g>
 <defs>
  <clipPath id="p41fe88ba27">
   <rect height="163.08" width="334.8" x="54" y="25.92"/>
  </clipPath>
 </defs>
</svg>
